<?xml version="1.0" standalone="no"?>
<!DOCTYPE svg PUBLIC "-//W3C//DTD SVG 20010904//EN"
 "http://www.w3.org/TR/2001/REC-SVG-20010904/DTD/svg10.dtd">
<svg version="1.0" xmlns="http://www.w3.org/2000/svg"
 width="2048.000000pt" height="2048.000000pt" viewBox="0 0 2048.000000 2048.000000"
 preserveAspectRatio="xMidYMid meet">

<g transform="translate(0.000000,2048.000000) scale(0.100000,-0.100000)"
fill="#000000" stroke="none">
<path d="M8490 17670 c-20 -6 -21 -8 -5 -8 11 0 31 4 45 8 20 6 21 8 5 8 -11
0 -31 -4 -45 -8z"/>
<path d="M8425 17650 c-16 -7 -17 -9 -3 -9 9 -1 20 4 23 9 7 11 7 11 -20 0z"/>
<path d="M8378 17633 c7 -3 16 -2 19 1 4 3 -2 6 -13 5 -11 0 -14 -3 -6 -6z"/>
<path d="M8338 17623 c7 -3 16 -2 19 1 4 3 -2 6 -13 5 -11 0 -14 -3 -6 -6z"/>
<path d="M8280 17610 c-9 -6 -10 -10 -3 -10 6 0 15 5 18 10 8 12 4 12 -15 0z"/>
<path d="M8238 17593 c7 -3 16 -2 19 1 4 3 -2 6 -13 5 -11 0 -14 -3 -6 -6z"/>
<path d="M8198 17583 c7 -3 16 -2 19 1 4 3 -2 6 -13 5 -11 0 -14 -3 -6 -6z"/>
<path d="M7965 17510 c-13 -6 -15 -9 -5 -9 8 0 22 4 30 9 18 12 2 12 -25 0z"/>
<path d="M13560 17180 c8 -5 20 -10 25 -10 6 0 3 5 -5 10 -8 5 -19 10 -25 10
-5 0 -3 -5 5 -10z"/>
<path d="M13710 17110 c20 -13 33 -13 25 0 -3 6 -14 10 -23 10 -15 0 -15 -2
-2 -10z"/>
<path d="M14041 16936 c2 -2 15 -9 29 -15 24 -11 24 -11 6 3 -16 13 -49 24
-35 12z"/>
<path d="M14527 16639 c7 -7 15 -10 18 -7 3 3 -2 9 -12 12 -14 6 -15 5 -6 -5z"/>
<path d="M14592 16594 c10 -10 20 -16 22 -13 3 3 -5 11 -17 18 -21 13 -21 12
-5 -5z"/>
<path d="M14890 16386 c0 -2 19 -19 43 -37 33 -26 38 -28 22 -9 -31 38 -65 62
-65 46z"/>
<path d="M14990 16312 c0 -6 19 -25 43 -43 23 -19 45 -38 49 -43 4 -6 11 -7
15 -2 4 4 -2 15 -15 25 -13 9 -39 29 -58 45 -19 15 -34 23 -34 18z"/>
<path d="M15161 16168 c101 -83 113 -89 44 -24 -38 36 -75 66 -83 66 -8 0 10
-19 39 -42z"/>
<path d="M15291 16057 c2 -1 13 -9 24 -17 19 -14 19 -14 6 3 -7 9 -18 17 -24
17 -6 0 -8 -1 -6 -3z"/>
<path d="M15421 15945 c96 -108 539 -549 545 -542 6 6 -25 44 -106 129 -14 14
-38 43 -53 62 -16 20 -35 36 -42 36 -6 0 -37 26 -66 58 -30 31 -74 73 -97 93
-23 20 -42 42 -42 48 0 6 -4 11 -9 11 -5 0 -34 24 -63 53 -74 72 -110 100 -67
52z"/>
<path d="M10168 15963 c7 -3 16 -2 19 1 4 3 -2 6 -13 5 -11 0 -14 -3 -6 -6z"/>
<path d="M10248 15963 c7 -3 16 -2 19 1 4 3 -2 6 -13 5 -11 0 -14 -3 -6 -6z"/>
<path d="M15970 15381 c0 -5 18 -27 40 -49 22 -21 40 -47 40 -56 0 -9 4 -15 9
-11 5 3 16 -4 23 -14 8 -11 37 -45 64 -75 83 -93 151 -170 177 -201 14 -16 29
-27 33 -23 4 4 -9 23 -29 42 -21 19 -37 38 -37 41 0 4 -47 60 -105 125 -58 66
-105 124 -105 129 0 12 -91 101 -102 101 -5 0 -8 -4 -8 -9z"/>
<path d="M13168 15173 c7 -3 16 -2 19 1 4 3 -2 6 -13 5 -11 0 -14 -3 -6 -6z"/>
<path d="M16370 14926 c0 -21 79 -120 88 -111 3 3 -4 15 -15 28 -12 12 -23 30
-25 41 -3 17 -48 57 -48 42z"/>
<path d="M16466 14785 c-8 -23 -8 -27 3 -21 10 6 71 -65 71 -81 0 -6 9 -18 20
-28 12 -11 17 -22 11 -28 -14 -14 -1 -47 19 -47 18 0 70 -59 70 -79 0 -6 5
-11 10 -11 6 0 10 -4 10 -9 0 -14 44 -80 53 -81 14 0 7 18 -17 47 -13 15 -33
47 -44 70 -12 23 -27 45 -32 48 -6 4 -16 18 -21 32 -6 16 -14 23 -24 19 -12
-4 -14 0 -9 19 5 19 2 25 -10 25 -9 0 -26 22 -41 53 -14 30 -33 62 -44 71 -17
15 -19 15 -25 1z"/>
<path d="M16672 14424 c10 -10 20 -15 24 -12 3 4 -5 12 -18 18 -22 12 -22 12
-6 -6z"/>
<path d="M14161 14413 c7 -10 15 -20 16 -22 2 -2 3 5 3 17 0 14 -6 22 -16 22
-14 0 -15 -3 -3 -17z"/>
<path d="M16748 14360 c2 -17 10 -30 18 -30 13 0 19 -18 14 -49 -1 -11 2 -11
14 2 15 14 14 19 -9 53 -14 20 -25 41 -25 45 0 5 -4 9 -8 9 -5 0 -7 -13 -4
-30z"/>
<path d="M14220 14337 c0 -9 15 -25 34 -37 19 -11 36 -26 38 -32 3 -7 7 -5 11
5 4 11 -1 20 -13 27 -11 6 -20 17 -20 25 0 8 -4 15 -9 15 -5 0 -16 3 -25 6
-10 4 -16 1 -16 -9z"/>
<path d="M14380 14245 c0 -9 5 -15 11 -13 6 2 11 8 11 13 0 5 -5 11 -11 13 -6
2 -11 -4 -11 -13z"/>
<path d="M16816 14244 c-3 -9 -6 -21 -5 -27 0 -7 4 -3 8 7 7 17 9 16 30 -13
13 -17 21 -38 18 -45 -7 -16 8 -41 25 -41 7 0 15 -11 16 -25 2 -14 10 -29 18
-33 8 -4 14 -13 14 -19 0 -7 10 -22 22 -35 17 -18 19 -26 10 -35 -17 -17 -15
-28 6 -28 19 0 62 -65 62 -94 0 -9 5 -16 10 -16 6 0 10 -9 10 -19 0 -11 5 -23
11 -27 6 -3 9 -15 6 -25 -3 -12 5 -30 24 -48 16 -16 29 -37 29 -46 0 -15 38
-94 51 -105 3 -3 9 -18 13 -34 6 -24 9 -27 18 -15 7 11 8 9 4 -8 -16 -62 -17
-67 -4 -39 12 26 15 27 27 12 7 -8 11 -22 8 -30 -3 -8 3 -24 14 -37 19 -22 23
-34 20 -53 -4 -17 22 -56 36 -56 7 0 13 -10 13 -22 0 -34 14 -52 27 -36 11 13
4 29 -71 174 -14 29 -26 59 -26 67 0 8 -7 20 -15 27 -8 7 -15 17 -15 22 0 12
-149 310 -159 318 -6 5 -35 59 -82 153 -11 20 -24 37 -29 37 -6 0 -10 5 -10
11 0 6 -7 17 -15 25 -8 9 -18 27 -21 42 -4 15 -15 36 -24 47 -10 11 -25 35
-34 53 -18 35 -31 40 -40 16z"/>
<path d="M14330 14231 c0 -6 7 -11 15 -11 8 0 15 -7 15 -15 0 -8 5 -15 11 -15
6 0 9 10 7 23 -3 22 -48 39 -48 18z"/>
<path d="M14405 14210 c-3 -5 -1 -10 4 -10 6 0 11 5 11 10 0 6 -2 10 -4 10 -3
0 -8 -4 -11 -10z"/>
<path d="M14517 14026 c24 -42 240 -305 251 -305 7 -1 11 -5 8 -10 -3 -5 20
-44 51 -87 131 -182 282 -419 435 -684 204 -353 293 -561 437 -1025 172 -554
246 -1202 211 -1846 -15 -278 -32 -409 -100 -779 -117 -635 -309 -1173 -605
-1690 -125 -218 -127 -220 -307 -480 -198 -286 -601 -721 -894 -966 -104 -87
-129 -109 -135 -118 -4 -4 -36 -29 -71 -55 -36 -25 -101 -73 -144 -107 -97
-75 -333 -232 -477 -318 -182 -108 -563 -293 -813 -395 -198 -80 -617 -202
-882 -257 -838 -173 -1752 -145 -2557 77 -158 44 -294 91 -510 176 -429 170
-637 277 -990 508 -60 40 -121 78 -135 85 -23 11 -22 10 6 -18 17 -17 42 -36
56 -41 14 -5 33 -24 42 -42 19 -38 12 -52 -10 -21 -18 26 -140 86 -160 78 -18
-7 -18 -30 0 -45 10 -9 15 -9 18 0 2 6 34 -17 72 -52 37 -35 74 -64 82 -65 19
-3 53 -45 54 -65 0 -9 9 -19 20 -22 21 -5 28 -27 9 -27 -5 0 -7 -4 -4 -10 3
-6 14 -10 24 -10 10 0 35 -18 55 -40 20 -22 39 -40 42 -40 15 0 85 -83 80 -95
-8 -21 20 -40 31 -21 7 13 16 9 52 -24 24 -22 49 -40 57 -40 7 0 19 -12 26
-27 8 -17 34 -39 67 -56 30 -15 71 -42 92 -60 45 -39 122 -87 139 -87 7 0 35
-13 62 -30 26 -16 52 -30 57 -30 4 0 15 -8 25 -18 9 -11 34 -24 56 -31 22 -7
55 -24 73 -40 17 -15 55 -38 82 -51 28 -13 57 -29 65 -35 8 -7 42 -22 75 -33
34 -11 74 -27 90 -35 91 -44 121 -57 134 -57 7 0 30 -8 50 -19 44 -23 464
-152 507 -156 18 -2 40 -8 51 -13 10 -6 56 -16 102 -22 46 -6 95 -16 109 -22
15 -5 52 -10 82 -10 30 0 63 -5 73 -10 9 -5 56 -9 105 -10 55 0 95 -5 109 -14
25 -16 104 -19 118 -5 10 9 391 -3 475 -15 27 -4 50 -14 58 -25 12 -18 34 -19
421 -19 436 0 425 -1 433 50 3 22 8 25 50 28 39 3 47 0 53 -17 5 -18 15 -21
56 -21 48 0 49 -1 49 -29 0 -16 3 -36 6 -45 12 -31 24 -16 24 29 0 34 -4 45
-16 45 -12 0 -14 9 -12 38 l3 37 82 3 c56 2 85 7 93 17 9 11 9 15 1 15 -14 0
-15 57 -1 65 6 4 8 10 5 15 -3 4 2 13 10 20 13 11 15 8 15 -17 0 -39 16 -53
62 -53 27 0 38 -4 38 -15 0 -13 36 -15 265 -15 l265 0 0 -93 c0 -59 4 -97 12
-105 8 -8 47 -12 110 -12 l98 0 0 -50 0 -49 -157 -3 -158 -3 -3 -53 -3 -52
-154 0 c-152 0 -154 0 -157 -23 -3 -19 -10 -23 -58 -27 -48 -4 -55 -8 -60 -30
-5 -21 -13 -26 -50 -30 l-45 -5 -3 -102 -3 -103 111 0 110 0 0 50 c0 43 3 50
20 50 17 0 20 -7 20 -50 l0 -50 85 0 85 0 0 50 0 50 50 0 50 0 0 55 0 55 50 0
c43 0 50 -3 50 -20 0 -18 7 -20 55 -20 48 0 55 3 55 19 0 17 8 20 53 23 l52 3
3 40 c5 81 8 85 57 85 49 0 52 -4 57 -85 l3 -40 48 -3 47 -3 0 53 c0 30 5 59
12 66 15 15 202 17 193 2 -4 -7 67 -9 217 -8 l223 3 -2 105 c-1 58 -5 129 -8
159 -6 48 -5 53 10 47 9 -3 36 -6 60 -6 l44 0 3 -47 3 -48 153 -3 152 -3 0 51
0 50 98 0 c63 0 102 4 110 12 8 8 12 46 12 105 0 102 3 98 -75 105 -26 3 -30
7 -33 37 -2 19 -1 45 3 58 l6 25 99 -7 99 -7 3 53 3 54 68 3 67 3 0 -51 c0
-37 4 -50 14 -50 11 0 16 14 18 48 3 43 5 47 28 47 22 0 25 -5 28 -39 2 -21
-1 -43 -7 -49 -15 -15 -14 -104 2 -114 6 -4 30 -10 52 -13 l40 -5 3 -107 3
-108 -56 0 -55 0 0 -50 0 -50 -105 0 -105 0 0 -50 0 -49 -102 -3 -103 -3 -3
-52 -3 -52 -52 -3 -52 -3 -3 -52 -3 -52 -102 -3 -102 -3 -3 -52 -3 -53 -49 0
-49 0 -3 52 -3 53 -47 3 -48 3 0 -43 c0 -55 -13 -68 -66 -68 l-43 0 -3 -48 -3
-47 -52 -3 -53 -3 0 -50 0 -49 43 0 c51 0 67 -13 67 -55 0 -42 -16 -55 -67
-55 l-43 0 0 -50 0 -50 99 0 c74 0 102 -4 111 -15 13 -15 11 -136 -2 -145 -4
-3 -3 -23 2 -44 5 -25 5 -35 -1 -29 -12 12 -93 5 -97 -8 -2 -5 -10 -9 -18 -9
-9 0 -12 -5 -8 -12 4 -7 3 -8 -5 -4 -13 9 -43 -12 -36 -24 3 -5 -12 -14 -32
-20 -21 -6 -53 -19 -72 -27 -31 -14 -35 -14 -46 1 -19 25 -42 19 -65 -19 -26
-41 -43 -41 -50 1 -4 25 -10 29 -43 32 -21 2 -45 -2 -53 -9 -19 -15 -18 -68 2
-90 14 -16 14 -18 -3 -27 -10 -6 -59 -13 -110 -17 -82 -7 -92 -10 -101 -31 -8
-16 -23 -25 -49 -30 -21 -4 -44 -12 -52 -18 -11 -8 -13 -8 -7 2 12 20 -12 14
-35 -9 -11 -11 -32 -21 -47 -22 -21 -2 -28 3 -30 21 -3 16 -8 22 -19 18 -8 -3
-17 -6 -19 -6 -2 0 -4 -4 -4 -10 0 -5 -12 -21 -27 -36 -25 -25 -30 -26 -130
-25 -65 1 -103 -2 -103 -9 0 -5 15 -11 33 -11 27 -2 28 -2 7 -6 -30 -6 -51
-23 -28 -23 9 0 19 -7 22 -16 8 -22 9 -21 -18 -26 -15 -3 -27 2 -35 14 -8 13
-24 18 -54 18 -23 0 -51 7 -61 15 -24 18 -79 19 -109 4 l-21 -12 24 -10 c14
-6 41 -10 62 -10 30 0 37 -4 41 -24 2 -14 -1 -27 -7 -29 -6 -2 -76 -5 -155 -7
-109 -1 -145 1 -148 11 -4 9 1 10 22 2 34 -13 42 -13 28 1 -6 6 -41 14 -77 16
-62 5 -66 4 -66 -15 0 -18 7 -21 48 -24 39 -3 47 -6 50 -24 3 -21 -2 -22 -104
-29 -91 -6 -107 -10 -111 -26 -3 -10 -11 -15 -19 -12 -8 3 -28 0 -45 -7 -23
-10 -33 -10 -42 -1 -7 7 -50 11 -115 11 -94 0 -104 -2 -109 -19 -7 -26 -67
-32 -105 -12 -22 12 -30 13 -40 3 -9 -9 -7 -12 9 -12 27 0 35 -11 22 -30 -6
-11 -11 -12 -16 -4 -9 13 -70 24 -130 24 -32 -1 -44 4 -53 19 -9 18 -14 19
-30 9 -10 -7 -17 -15 -15 -19 3 -3 -12 -9 -33 -13 -58 -9 -132 -7 -132 4 0 7
-53 10 -155 8 -204 -4 -204 -22 0 -25 83 -1 154 -2 158 -3 4 0 3 -10 -4 -21
-11 -21 -15 -22 -147 -15 -234 12 -245 14 -263 50 -15 28 -20 31 -60 29 -64
-2 -251 -28 -272 -37 -11 -5 -29 -4 -43 3 -14 6 -74 11 -134 11 -122 0 -140 4
-140 31 0 17 9 19 106 19 80 0 105 3 102 13 -4 9 -98 13 -418 15 -237 1 -418
6 -423 11 -6 6 -31 7 -57 4 -51 -6 -90 8 -90 32 0 8 7 15 15 15 8 0 15 7 15
16 0 14 -8 16 -50 12 -27 -3 -54 0 -60 6 -7 7 -10 6 -10 -3 0 -11 -14 -12 -67
-6 -38 4 -81 7 -98 7 -60 -3 -115 9 -115 24 0 15 -4 16 -67 19 -47 1 -83 23
-61 36 19 13 86 11 94 -2 3 -6 17 -9 30 -6 13 2 24 0 24 -4 0 -5 13 -9 28 -9
22 0 28 5 30 25 l2 25 -204 0 c-169 0 -206 3 -216 15 -7 9 -29 15 -55 15 -23
0 -45 3 -49 8 -4 4 -12 7 -17 7 -5 0 -10 5 -11 10 -2 6 24 11 60 13 54 3 62 5
62 23 0 19 -6 20 -94 18 -51 -1 -99 1 -105 5 -6 4 -41 6 -77 5 -48 -2 -69 2
-75 12 -26 46 -37 54 -58 41 -12 -6 -27 -12 -35 -12 -26 0 -66 23 -66 37 0 9
-15 13 -48 13 -42 0 -51 4 -70 30 -25 33 -27 46 -9 53 8 3 6 9 -8 20 -12 10
-24 12 -29 6 -6 -5 -20 -9 -32 -9 -12 0 -24 -5 -26 -12 -6 -16 -58 -1 -58 16
0 8 -6 16 -12 18 -22 7 -108 -4 -108 -14 0 -5 -6 -6 -12 -2 -7 4 -2 -4 12 -19
25 -27 50 -35 50 -17 0 6 7 10 16 10 14 0 14 -3 4 -15 -11 -13 -8 -15 14 -15
15 0 25 -4 22 -9 -5 -7 99 -61 119 -61 4 0 21 -6 38 -14 48 -22 104 -35 126
-29 13 3 21 -1 25 -14 4 -13 33 -27 98 -47 51 -16 102 -35 113 -43 11 -7 29
-13 40 -13 12 0 25 -4 30 -9 10 -8 127 -52 190 -71 28 -8 65 -20 175 -55 25
-8 72 -20 105 -26 33 -6 65 -15 71 -20 6 -5 52 -15 101 -23 49 -7 95 -16 101
-20 11 -6 177 -40 287 -57 33 -6 95 -16 139 -24 43 -8 83 -12 88 -9 5 3 14 1
21 -4 7 -6 62 -15 122 -21 61 -6 150 -15 200 -21 306 -33 1170 -36 1510 -5
267 25 397 43 406 56 6 10 36 14 101 14 51 1 100 5 108 10 15 10 63 16 114 16
16 0 35 4 43 10 7 6 24 8 37 5 14 -3 28 -2 31 4 3 5 18 10 33 11 23 0 24 1 7
8 -15 6 -10 9 23 15 24 3 47 4 51 2 4 -3 30 1 58 8 28 8 64 12 79 9 23 -4 26
-2 14 6 -12 9 -9 11 15 13 17 1 46 2 65 4 42 3 119 23 220 58 41 15 95 32 120
38 25 5 51 15 58 21 13 10 170 68 257 94 28 8 54 19 60 24 5 5 18 9 30 9 11 0
34 7 50 16 17 9 53 23 80 31 28 8 55 19 60 23 6 4 30 13 54 20 84 22 600 277
789 388 62 37 125 74 140 82 61 34 194 119 352 225 242 163 270 183 305 213
18 15 41 34 51 42 322 252 662 550 834 730 164 171 201 214 365 411 48 57 104
125 126 150 22 26 49 62 62 80 13 19 53 72 90 117 37 46 67 88 67 93 0 5 8 18
18 28 20 23 42 53 133 191 38 58 77 116 86 130 47 70 83 129 83 133 0 3 18 33
40 66 22 33 40 63 40 67 0 4 6 15 14 23 31 35 183 316 301 555 69 140 125 257
125 261 0 4 13 37 28 73 27 64 53 131 106 280 37 100 126 379 142 442 8 30 21
78 29 105 26 88 73 298 80 355 4 30 11 62 16 71 5 9 15 57 24 105 8 49 24 136
35 194 27 134 56 336 75 520 8 80 20 186 26 235 26 217 34 428 33 900 0 355
-3 510 -12 535 -6 19 -14 85 -17 145 -3 61 -10 133 -15 160 -4 28 -18 120 -29
205 -12 85 -24 162 -27 170 -4 8 -15 60 -25 115 -29 161 -76 387 -94 460 -8
30 -45 187 -50 210 -15 72 -73 277 -84 295 -5 9 -12 31 -16 50 -4 19 -13 49
-20 65 -8 17 -27 71 -44 120 -29 89 -49 140 -77 202 -8 17 -14 34 -14 38 0 14
-90 236 -113 279 l-22 41 -3 -30 c-2 -16 2 -48 8 -70 7 -22 14 -46 16 -53 2
-7 9 -11 16 -10 9 2 13 -9 13 -32 1 -45 26 -98 43 -92 10 3 13 -4 10 -24 -2
-16 4 -37 12 -46 8 -10 15 -36 15 -58 1 -23 7 -45 13 -49 12 -7 45 -153 40
-175 -2 -6 7 -21 20 -34 23 -23 28 -47 12 -57 -13 -8 -13 -65 0 -65 5 0 12 11
16 25 9 35 27 19 20 -17 -5 -25 -2 -31 15 -35 17 -5 20 -11 15 -36 -3 -17 -1
-36 6 -44 6 -8 11 -32 10 -54 -2 -40 13 -77 51 -128 11 -15 17 -42 17 -75 0
-34 3 -46 9 -37 10 15 21 -89 21 -182 -1 -41 3 -50 20 -54 13 -3 21 -14 22
-32 1 -14 2 -33 3 -41 0 -8 4 -21 9 -28 4 -7 10 -36 12 -65 2 -29 10 -62 16
-75 9 -17 9 -25 0 -34 -18 -18 -15 -41 4 -34 14 5 15 1 10 -28 -5 -24 -1 -48
12 -78 27 -61 62 -315 66 -476 1 -47 7 -87 14 -94 8 -8 11 -40 10 -87 -1 -46
-3 -59 -5 -34 -5 47 -33 70 -33 27 0 -33 19 -112 35 -149 13 -27 14 -28 22
-10 19 50 42 -615 27 -800 -6 -71 -10 -84 -26 -88 -16 -5 -19 -13 -16 -59 2
-36 7 -52 16 -51 16 4 17 -143 0 -153 -8 -5 -9 5 -5 35 4 35 3 40 -9 30 -10
-8 -12 -26 -7 -73 7 -71 -9 -69 -26 4 -10 41 -10 38 -6 -35 2 -45 7 -89 11
-99 5 -14 3 -17 -7 -14 -10 3 -15 30 -19 99 -5 101 -21 122 -31 42 l-5 -48 -5
44 c-2 27 -11 48 -21 55 -22 14 -27 8 -29 -39 -3 -53 -14 -65 -60 -65 l-39 0
0 -45 0 -45 50 0 49 0 4 -57 3 -58 2 58 c2 55 3 57 30 57 l27 0 -9 -110 -9
-110 -179 0 -178 0 0 88 c0 48 -3 117 -7 155 l-6 67 -53 0 -54 0 0 54 0 55
-47 3 -48 3 -3 205 c-2 145 -6 206 -14 212 -23 13 14 18 172 20 l155 3 3 42 3
42 -53 3 -53 3 -5 54 c-3 31 -10 56 -17 59 -7 2 -13 -1 -13 -7 0 -8 -120 -11
-403 -11 l-404 0 -11 23 c-7 12 -13 60 -14 107 l-3 85 -58 -2 c-60 -2 -87 -14
-87 -39 0 -8 12 -20 28 -26 25 -11 25 -12 6 -15 -19 -4 -22 -13 -28 -95 -3
-50 -6 -120 -6 -155 0 -34 -4 -63 -9 -63 -5 0 -10 38 -10 85 0 47 -3 91 -7 96
-9 16 -37 265 -36 326 0 29 5 68 11 88 7 27 6 42 -5 63 -7 15 -14 35 -14 46 0
12 -5 16 -14 13 -9 -4 -17 1 -20 11 -13 46 -19 90 -17 117 1 17 -3 44 -9 60
-7 17 -18 64 -26 105 -7 41 -22 109 -34 150 -11 41 -25 95 -31 120 -24 105
-34 138 -87 285 -14 39 -33 93 -42 121 -10 28 -22 60 -27 70 -44 88 -63 131
-63 141 0 7 -18 47 -39 90 -21 43 -53 107 -70 143 -17 36 -36 72 -41 80 -6 8
-23 44 -40 80 -16 36 -34 73 -40 83 -24 42 -31 54 -52 95 -12 23 -26 42 -30
42 -4 0 -8 12 -8 26 0 16 -10 34 -25 46 -14 11 -24 25 -23 30 2 6 -12 26 -30
46 -29 30 -32 36 -19 44 23 12 9 38 -20 38 -30 0 -64 38 -58 65 3 11 2 14 -1
7 -7 -15 -24 -6 -24 13 0 8 -11 25 -25 39 -14 14 -25 32 -25 41 0 8 -7 15 -15
15 -8 0 -15 9 -15 21 0 11 -4 18 -10 14 -5 -3 -16 8 -25 25 -16 31 -7 41 15
15 17 -21 30 -19 30 5 0 11 -7 20 -15 20 -16 0 -20 12 -8 23 3 4 15 0 25 -10
14 -13 18 -13 18 -2 0 28 -16 36 -68 35 -60 0 -72 10 -72 61 0 19 -10 43 -25
61 -14 17 -25 36 -25 45 0 8 -18 29 -40 48 -22 19 -40 39 -40 45 0 17 -26 24
-39 11 -9 -9 -14 -8 -21 3 -7 11 -5 16 5 18 17 4 23 25 23 72 -1 19 -3 27 -5
18 -4 -14 -8 -16 -24 -8 -10 6 -19 17 -19 26 0 8 -12 19 -26 24 -18 7 -25 17
-24 33 3 36 1 40 -16 27 -28 -24 -47 9 -45 79 1 57 -1 62 -24 71 -15 6 -25 17
-25 29 0 11 -4 22 -8 25 -14 9 -35 -12 -29 -29 4 -9 3 -14 -3 -10 -6 3 -10 1
-10 -4 0 -6 5 -11 10 -11 6 0 10 -7 10 -15 0 -12 -4 -11 -20 5 -24 24 -36 25
-44 4 -6 -15 -10 -14 -32 7 -13 13 -22 29 -19 37 3 8 -2 23 -11 33 -10 11 -14
27 -11 40 5 18 -4 32 -41 66 -26 23 -52 43 -58 43 -6 0 -18 16 -27 35 -9 19
-23 35 -31 35 -7 0 -24 14 -37 31 -55 72 -72 89 -85 89 -10 0 -12 -5 -7 -14z
m414 -456 c18 -22 41 -40 51 -40 10 0 18 -7 18 -16 0 -24 39 -74 65 -84 17 -7
22 -14 18 -30 -4 -14 2 -28 16 -41 14 -14 20 -27 16 -40 -4 -11 -2 -19 4 -19
13 0 15 -37 2 -45 -11 -6 -45 38 -55 72 -4 11 -13 24 -21 27 -8 3 -15 12 -15
21 0 8 -3 15 -8 15 -4 0 -28 28 -52 62 -25 34 -49 66 -55 72 -12 14 -45 72
-45 80 0 19 34 0 61 -34z m349 -564 c0 -5 -7 -1 -15 10 -8 10 -14 24 -14 29 0
6 6 1 14 -9 8 -11 15 -24 15 -30z m24 -31 c3 -8 1 -15 -4 -15 -6 0 -10 7 -10
15 0 8 2 15 4 15 2 0 6 -7 10 -15z m27 -38 c-1 -12 -15 -9 -19 4 -3 6 1 10 8
8 6 -3 11 -8 11 -12z m29 -97 c0 -5 -2 -10 -4 -10 -3 0 -8 5 -11 10 -3 6 -1
10 4 10 6 0 11 -4 11 -10z m390 -951 c0 -6 -4 -7 -10 -4 -5 3 -10 11 -10 16 0
6 5 7 10 4 6 -3 10 -11 10 -16z m2037 -1 c-3 -8 -6 -5 -6 6 -1 11 2 17 5 13 3
-3 4 -12 1 -19z m190 -1260 c-3 -8 -6 -5 -6 6 -1 11 2 17 5 13 3 -3 4 -12 1
-19z m-1427 -558 c0 -22 -4 -40 -10 -40 -5 0 -10 18 -10 40 0 22 5 40 10 40 6
0 10 -18 10 -40z m-24 -66 c-3 -9 -6 -79 -6 -156 0 -78 -2 -139 -4 -137 -2 2
-6 73 -10 157 -5 135 -4 152 10 152 11 0 14 -5 10 -16z m429 -94 c-3 -5 -26
-10 -51 -10 l-44 0 0 -100 0 -100 163 -2 162 -3 3 -89 c4 -128 7 -126 -180
-126 l-148 0 0 110 0 110 -100 0 -100 0 2 103 2 102 3 -97 4 -98 89 0 90 0 0
93 c0 59 4 97 12 105 15 15 102 16 93 2z m-405 -370 c0 -22 -4 -40 -10 -40 -5
0 -10 18 -10 40 0 22 5 40 10 40 6 0 10 -18 10 -40z m-34 -167 c11 -4 14 -27
14 -104 0 -92 -1 -99 -20 -99 -19 0 -20 6 -18 158 1 86 3 133 5 104 3 -34 9
-55 19 -59z m242 5 l-3 -103 -47 -3 -47 -3 -3 -96 c-2 -66 -7 -98 -15 -101 -9
-2 -13 9 -13 35 0 46 -14 63 -52 63 l-28 0 0 100 0 100 28 0 c39 0 52 17 52
67 l0 43 65 0 66 0 -3 -102z m632 -53 l0 -45 -100 0 -100 0 0 45 0 45 100 0
100 0 0 -45z m-523 -418 c-2 -23 -3 -1 -3 48 0 50 1 68 3 42 2 -26 2 -67 0
-90z m891 -69 c8 -8 12 -46 12 -105 0 -51 4 -93 8 -93 10 0 15 -75 7 -101 -4
-10 -13 -19 -22 -19 -12 0 -14 -11 -11 -55 3 -49 1 -54 -15 -49 -16 5 -17 3
-9 -13 5 -10 12 -40 15 -68 5 -48 5 -48 -6 -17 -10 27 -15 30 -26 20 -10 -9
-12 -9 -7 -1 4 7 7 42 7 78 1 36 5 63 10 59 10 -6 12 26 3 50 -3 9 -9 14 -13
12 -4 -3 -4 17 -1 44 3 27 3 47 -2 44 -4 -3 -8 2 -8 10 0 8 5 18 10 21 6 3 10
48 10 101 0 95 8 112 38 82z m-1091 -140 c-2 -29 -3 -8 -3 47 0 55 1 79 3 53
2 -26 2 -71 0 -100z m-119 -4 c3 -42 -16 -72 -38 -59 -11 7 -14 88 -3 99 18
18 38 -1 41 -40z m265 -491 c-29 -2 -77 -2 -105 0 -29 2 -6 3 52 3 58 0 81 -1
53 -3z m887 -13 c0 -5 7 -6 17 -3 11 4 14 3 9 -5 -4 -7 -3 -12 2 -12 5 0 7
-12 5 -27 -8 -50 -12 -56 -27 -44 -19 16 -26 4 -26 -44 0 -50 -13 -65 -57 -65
l-33 0 0 -204 c0 -169 -3 -206 -15 -216 -14 -12 -20 -7 -16 14 1 5 -4 4 -13
-3 -10 -8 -16 -9 -21 -1 -3 6 -11 7 -17 4 -7 -5 -8 25 -3 95 5 72 4 101 -4
101 -7 0 -11 20 -11 50 0 28 5 50 11 50 7 0 8 50 3 160 l-7 160 102 0 c58 0
101 -4 101 -10z m-833 -152 c-2 -13 -4 -5 -4 17 -1 22 1 32 4 23 2 -10 2 -28
0 -40z m98 -38 c4 -6 -13 -10 -44 -10 -27 0 -53 5 -56 10 -4 6 13 10 44 10 27
0 53 -4 56 -10z m683 -175 c-6 -64 -21 -100 -39 -89 -5 3 -9 39 -9 80 0 73 0
74 26 74 27 0 27 0 22 -65z m-8 -177 c0 -19 -2 -20 -10 -8 -13 19 -13 30 0 30
6 0 10 -10 10 -22z m-153 -150 c-3 -8 -6 -5 -6 6 -1 11 2 17 5 13 3 -3 4 -12
1 -19z m20 -110 c-3 -7 -5 -2 -5 12 0 14 2 19 5 13 2 -7 2 -19 0 -25z m12 -59
c-14 -27 -20 -24 -17 10 2 23 5 28 15 19 9 -7 10 -15 2 -29z m-1974 -344 c0
-22 -5 -40 -12 -42 -9 -3 -13 9 -13 42 0 33 4 45 13 43 7 -3 12 -21 12 -43z
m1805 -71 c0 -8 -4 -12 -10 -9 -5 3 -10 10 -10 16 0 5 5 9 10 9 6 0 10 -7 10
-16z m-1880 -45 c0 -43 -3 -50 -17 -47 -12 2 -19 14 -21 37 -4 41 3 61 23 61
11 0 15 -12 15 -51z m1842 -61 c-15 -15 -26 -4 -18 18 5 13 9 15 18 6 9 -9 9
-15 0 -24z m-94 -185 c4 -24 -24 -39 -32 -17 -7 19 4 46 18 41 6 -2 12 -13 14
-24z m-998 -33 c0 -17 -7 -20 -45 -20 -38 0 -45 3 -45 20 0 17 7 20 45 20 38
0 45 -3 45 -20z m955 -87 c3 -10 1 -19 -5 -21 -6 -2 -17 -10 -24 -18 -27 -26
-33 -14 -16 30 11 30 35 34 45 9z m-55 -98 c0 -8 -4 -15 -10 -15 -5 0 -7 7 -4
15 4 8 8 15 10 15 2 0 4 -7 4 -15z m-1825 -115 c3 -5 -3 -10 -14 -10 -12 0
-21 5 -21 10 0 6 6 10 14 10 8 0 18 -4 21 -10z m655 -52 c0 -42 -3 -49 -17
-46 -13 2 -19 15 -21 42 -4 48 3 67 23 60 11 -4 15 -20 15 -56z m972 50 c-16
-16 -16 -51 0 -46 7 3 13 13 13 24 0 13 8 20 27 22 22 3 27 0 22 -12 -3 -9
-10 -13 -15 -10 -5 3 -9 -6 -9 -20 0 -14 -8 -29 -17 -35 -13 -7 -17 -21 -15
-54 1 -26 -5 -52 -13 -63 -13 -17 -14 -14 -15 35 0 30 -3 51 -7 48 -7 -8 -33
11 -33 24 0 5 6 9 14 9 8 0 17 16 21 37 4 21 12 41 18 45 18 12 22 9 9 -4z
m-1544 -50 c4 -21 -37 -31 -45 -11 -6 16 15 35 32 30 6 -2 11 -11 13 -19z
m-448 -38 c0 -5 -9 -10 -20 -10 -11 0 -20 5 -20 10 0 6 9 10 20 10 11 0 20 -4
20 -10z m365 0 c3 -5 -3 -10 -14 -10 -12 0 -21 5 -21 10 0 6 6 10 14 10 8 0
18 -4 21 -10z m-455 -95 c0 -8 -4 -15 -10 -15 -5 0 -10 7 -10 15 0 8 5 15 10
15 6 0 10 -7 10 -15z m2050 -39 c0 -8 -7 -17 -16 -20 -23 -9 -24 -8 -24 14 0
13 7 20 20 20 11 0 20 -6 20 -14z m-2160 -66 c0 -11 -4 -20 -9 -20 -5 0 -7 9
-4 20 3 11 7 20 9 20 2 0 4 -9 4 -20z m110 -71 l0 -50 -42 3 -43 3 -3 48 -3
47 45 0 46 0 0 -51z m1390 -6 c5 -46 3 -52 -15 -57 -33 -9 -93 -7 -100 4 -3 6
-1 10 4 10 6 0 11 22 11 51 l0 50 48 -3 47 -3 5 -52z m570 7 c0 -39 -4 -53
-20 -62 -11 -7 -20 -23 -20 -35 0 -16 -6 -23 -18 -23 -35 0 -63 -43 -64 -99
-1 -39 -5 -51 -17 -52 -9 -1 -27 -2 -41 -2 -23 -2 -25 -7 -30 -57 -5 -53 -6
-55 -32 -52 -16 2 -28 -1 -28 -7 0 -6 5 -11 10 -11 13 0 13 -33 0 -46 -5 -5
-11 -20 -13 -33 -4 -25 -23 -41 -49 -41 -15 0 -18 9 -18 59 0 33 -4 63 -10 66
-6 4 -10 -8 -10 -29 0 -19 -4 -38 -10 -41 -16 -10 -12 -37 10 -60 17 -18 18
-26 8 -60 -8 -31 -12 -36 -17 -22 -6 17 -10 15 -41 -12 -19 -17 -43 -31 -54
-31 -16 0 -18 5 -12 38 3 20 6 81 6 134 l0 97 53 3 52 3 3 52 3 52 52 3 52 3
3 53 3 52 51 0 c41 0 49 3 44 16 -3 8 -2 13 2 10 5 -3 8 14 8 37 l-1 42 53 3
52 3 0 50 c0 42 3 49 20 49 17 0 20 -7 20 -50z m-2180 -40 c0 -5 -7 -10 -16
-10 -8 0 -12 5 -9 10 3 6 10 10 16 10 5 0 9 -4 9 -10z m90 -14 c0 -11 -19 -15
-25 -6 -3 5 1 10 9 10 9 0 16 -2 16 -4z m838 -163 c-4 -66 -28 -70 -28 -4 0
39 4 51 16 51 12 0 14 -10 12 -47z m580 -105 c-2 -41 -7 -54 -20 -56 -15 -3
-18 4 -18 42 0 25 -4 46 -10 46 -5 0 -10 5 -10 10 0 6 14 10 31 10 l30 0 -3
-52z m-1547 32 l40 0 -3 -42 -3 -43 -50 0 -50 0 -3 49 c-3 42 -1 48 13 42 9
-3 35 -6 56 -6z m-281 -14 c0 -7 -7 -19 -15 -26 -13 -11 -15 -8 -15 14 0 16 5
26 15 26 8 0 15 -6 15 -14z m1077 -128 c-2 -29 -3 -8 -3 47 0 55 1 79 3 53 2
-26 2 -71 0 -100z m98 47 c0 -52 -3 -95 -7 -95 -5 0 -8 43 -8 95 0 52 3 95 8
95 4 0 7 -43 7 -95z m-318 -48 c-2 -23 -3 -1 -3 48 0 50 1 68 3 42 2 -26 2
-67 0 -90z m533 40 c0 -8 -3 -17 -7 -20 -9 -9 -34 13 -27 24 8 14 34 11 34 -4z
m-72 -75 c2 -7 -3 -12 -12 -12 -12 0 -16 -11 -16 -49 0 -28 -4 -52 -8 -55 -16
-10 -30 10 -34 52 -3 38 -1 43 19 48 13 4 23 13 23 21 0 17 22 13 28 -5z
m-1208 -62 l0 -50 50 0 50 0 0 -57 0 -58 -100 0 -100 0 0 108 0 107 50 0 50 0
0 -50z m710 -116 c0 -38 -3 -45 -17 -42 -32 6 -30 88 2 88 11 0 15 -11 15 -46z
m-227 -51 c-23 -2 -64 -2 -90 0 -26 2 -7 3 42 3 50 0 71 -1 48 -3z m1439 -11
c6 -6 7 -19 3 -29 -5 -12 -9 -14 -12 -5 -8 21 -50 14 -56 -9 -4 -13 -10 -18
-18 -13 -8 4 -10 3 -5 -4 4 -7 4 -18 -1 -24 -8 -14 -20 25 -22 73 -1 24 1 25
49 24 28 -1 55 -6 62 -13z m-2772 -181 c0 -14 -18 -23 -30 -16 -6 4 -8 11 -5
16 8 12 35 12 35 0z m1480 -73 l0 -53 -50 3 -50 4 0 42 c0 24 3 46 7 49 3 4
26 7 50 7 l43 0 0 -52z m1110 26 c0 -8 -4 -12 -10 -9 -5 3 -10 10 -10 16 0 5
5 9 10 9 6 0 10 -7 10 -16z m-1622 -90 c-3 -3 -30 -6 -60 -7 -49 -2 -53 -4
-53 -27 0 -24 3 -25 58 -25 31 0 57 -3 57 -7 0 -5 -27 -8 -61 -8 -50 0 -60 -3
-55 -15 4 -11 -2 -15 -22 -15 -27 0 -27 1 -24 55 4 52 5 55 35 60 83 13 144 8
125 -11z m897 -92 c-10 -10 -25 21 -25 54 0 16 6 36 13 43 10 10 13 2 15 -40
2 -28 0 -54 -3 -57z m630 87 c-8 -12 -35 -12 -35 0 0 11 22 20 33 14 4 -2 5
-9 2 -14z m-2535 -34 c0 -33 -4 -45 -15 -45 -11 0 -15 11 -15 38 0 21 3 42 7
45 16 16 23 4 23 -38z m367 -27 c-2 -13 -4 -5 -4 17 -1 22 1 32 4 23 2 -10 2
-28 0 -40z m103 23 c0 -17 -4 -33 -10 -36 -6 -4 -10 8 -10 29 0 20 5 36 10 36
6 0 10 -13 10 -29z m1880 -61 c0 -5 -4 -10 -9 -10 -6 0 -13 5 -16 10 -3 6 1
10 9 10 9 0 16 -4 16 -10z m-1590 -50 c0 -27 -4 -50 -10 -50 -5 0 -10 23 -10
50 0 28 5 50 10 50 6 0 10 -22 10 -50z m-60 5 c0 -19 -4 -35 -10 -35 -5 0 -10
16 -10 35 0 19 5 35 10 35 6 0 10 -16 10 -35z m-1090 -106 c0 -43 -3 -50 -17
-47 -34 6 -25 98 8 98 5 0 9 -23 9 -51z m1710 -5 l0 -56 50 4 c28 1 50 -1 50
-5 0 -5 4 -6 8 -3 8 5 6 -34 -4 -82 -4 -21 -9 -23 -52 -20 l-47 3 -3 52 -3 52
-52 3 -52 3 -3 38 c-4 51 11 67 64 67 l44 0 0 -56z m-2238 -36 c3 -9 38 -15
109 -18 l104 -5 3 -40 c4 -51 17 -65 57 -65 39 0 58 -19 53 -57 l-3 -28 -157
-3 -157 -3 -3 38 -3 38 -260 5 c-143 3 -253 7 -244 8 9 1 22 8 28 16 6 7 30
16 53 20 23 4 53 13 67 21 18 10 76 17 181 22 94 5 154 12 153 18 -1 6 -11 11
-23 13 -20 3 -26 13 -13 25 11 12 51 8 55 -5z m-1352 -329 c0 -18 -2 -19 -15
-9 -15 12 -12 30 6 30 5 0 9 -10 9 -21z m175 1 c-14 -15 -31 -20 -71 -20 -52
0 -71 10 -59 30 3 6 38 10 77 10 70 0 71 0 53 -20z m3758 -230 c-3 -11 -11
-20 -18 -20 -10 0 -11 5 -2 24 14 28 28 25 20 -4z m-103 -5 c0 -9 -9 -15 -21
-15 -18 0 -19 2 -9 15 7 8 16 15 21 15 5 0 9 -7 9 -15z m-375 -85 c3 -5 22
-10 41 -10 19 0 34 -4 34 -10 0 -5 -4 -10 -10 -10 -5 0 -10 -7 -10 -15 0 -8
-6 -15 -14 -15 -7 0 -16 -9 -19 -20 -5 -18 -14 -20 -93 -20 -67 0 -92 4 -106
17 -20 18 -24 63 -6 81 15 15 174 16 183 2z m95 -104 c0 -8 5 -16 11 -18 17
-6 -2 -38 -22 -38 -10 0 -28 9 -39 20 -19 19 -19 19 3 35 27 19 47 19 47 1z
m-130 -137 c0 -5 -11 -9 -25 -9 -27 0 -32 9 -13 28 12 12 38 -1 38 -19z m-750
-139 c0 -43 -3 -50 -20 -50 -17 0 -20 7 -20 50 0 43 3 50 20 50 17 0 20 -7 20
-50z m544 -55 c3 -9 0 -15 -9 -15 -16 0 -27 14 -18 24 10 10 21 7 27 -9z
m-137 -71 c-3 -3 -12 -4 -19 -1 -8 3 -5 6 6 6 11 1 17 -2 13 -5z m-102 -44 c3
-5 1 -10 -4 -10 -6 0 -11 5 -11 10 0 6 2 10 4 10 3 0 8 -4 11 -10z m-215 -105
c0 -22 -31 -35 -47 -20 -21 22 -15 35 17 35 20 0 30 -5 30 -15z m-95 -74 c3
-5 1 -12 -4 -15 -13 -8 -42 4 -35 15 7 12 31 12 39 0z m-5732 -498 c-7 -2 -19
-2 -25 0 -7 3 -2 5 12 5 14 0 19 -2 13 -5z m4400 -50 c-7 -2 -21 -2 -30 0 -10
3 -4 5 12 5 17 0 24 -2 18 -5z m-3113 -213 c0 -5 -9 -10 -20 -10 -11 0 -20 5
-20 10 0 6 9 10 20 10 11 0 20 -4 20 -10z m2003 -27 c-7 -2 -21 -2 -30 0 -10
3 -4 5 12 5 17 0 24 -2 18 -5z m-1108 -48 c0 -5 -21 -11 -47 -13 -45 -3 -58 4
-41 22 11 10 88 3 88 -9z"/>
<path d="M17530 7886 c0 -107 4 -119 38 -98 9 6 12 34 10 103 -3 89 -4 94 -25
97 -23 3 -23 2 -23 -102z"/>
<path d="M6020 13964 c0 -17 22 -14 28 4 2 7 -3 12 -12 12 -9 0 -16 -7 -16
-16z"/>
<path d="M5970 13909 c0 -5 5 -7 12 -3 8 5 9 0 5 -17 -6 -23 -5 -23 8 -5 8 10
12 23 9 27 -7 13 -34 11 -34 -2z"/>
<path d="M14840 13856 c0 -14 5 -28 10 -31 6 -4 10 7 10 24 0 17 -4 31 -10 31
-5 0 -10 -11 -10 -24z"/>
<path d="M5920 13820 c0 -5 5 -10 10 -10 6 0 10 5 10 10 0 6 -4 10 -10 10 -5
0 -10 -4 -10 -10z"/>
<path d="M14845 13744 c-9 -9 -14 -21 -12 -28 6 -17 52 -19 67 -2 7 9 9 16 5
16 -4 0 -3 6 3 13 17 20 -43 21 -63 1z"/>
<path d="M5840 13715 c0 -8 -3 -15 -8 -15 -10 0 -35 -41 -28 -47 6 -6 26 14
44 45 15 26 15 32 2 32 -5 0 -10 -7 -10 -15z"/>
<path d="M5692 13603 c-18 -21 -32 -43 -32 -50 0 -8 -12 -18 -27 -24 -16 -7
-23 -13 -15 -16 14 -5 16 -39 3 -48 -5 -3 -12 -1 -16 5 -14 23 -26 8 -20 -26
5 -33 3 -36 -15 -31 -11 3 -18 1 -15 -3 9 -15 -7 -40 -25 -40 -13 0 -17 -5
-13 -20 3 -11 0 -27 -7 -35 -7 -9 -11 -17 -9 -19 9 -8 50 15 56 31 4 10 30 53
60 95 29 43 58 89 63 103 5 14 14 25 20 25 5 0 10 7 10 15 0 8 9 24 20 35 19
19 20 40 1 40 -4 0 -21 -17 -39 -37z"/>
<path d="M5766 13621 c-4 -7 -5 -15 -2 -18 9 -9 19 4 14 18 -4 11 -6 11 -12 0z"/>
<path d="M3520 13586 c0 -2 -7 -21 -16 -42 -13 -32 -13 -36 -1 -24 14 15 32
70 22 70 -3 0 -5 -2 -5 -4z"/>
<path d="M5728 13559 c-10 -10 -18 -25 -18 -32 0 -7 -20 -43 -45 -80 -25 -37
-45 -70 -45 -73 0 -3 -15 -24 -34 -47 -19 -23 -49 -69 -66 -102 -18 -33 -38
-67 -45 -75 -6 -8 -24 -41 -39 -72 -15 -31 -30 -58 -34 -60 -4 -2 -23 -34 -42
-73 -19 -38 -38 -71 -42 -73 -5 -2 -8 -11 -8 -21 0 -9 -4 -21 -9 -26 -9 -10
-143 -338 -156 -385 -4 -14 -18 -46 -31 -72 -27 -52 -28 -58 -15 -58 5 0 14
15 22 33 187 467 308 710 501 1009 59 91 108 171 108 176 0 5 7 15 15 22 16
13 20 31 8 29 -5 0 -16 -9 -25 -20z"/>
<path d="M15084 13525 c-9 -23 15 -48 32 -34 7 6 17 8 22 5 5 -3 7 5 5 17 -5
27 -50 36 -59 12z"/>
<path d="M3466 13465 c-9 -26 -7 -32 5 -12 6 10 9 21 6 23 -2 3 -7 -2 -11 -11z"/>
<path d="M15145 13470 c-4 -7 -1 -16 6 -21 17 -10 26 8 11 23 -6 6 -12 6 -17
-2z"/>
<path d="M15176 13422 c-3 -6 10 -26 29 -46 19 -20 35 -41 35 -46 0 -6 5 -10
10 -10 6 0 10 8 10 18 -1 22 -75 98 -84 84z"/>
<path d="M3403 13328 c-33 -74 -37 -89 -19 -82 9 3 16 15 16 25 0 31 1 33 17
51 8 9 13 25 11 35 -3 13 -10 4 -25 -29z"/>
<path d="M15272 13270 c-11 -38 -10 -43 13 -77 l24 -37 -4 65 c-2 35 -5 70 -5
77 0 26 -16 10 -28 -28z"/>
<path d="M5483 13276 c3 -7 0 -19 -6 -25 -6 -6 -7 -14 -3 -18 4 -4 16 3 26 17
14 18 15 27 7 32 -19 12 -30 9 -24 -6z"/>
<path d="M3334 13174 c-8 -20 -12 -44 -8 -53 5 -11 9 -3 15 27 4 23 11 47 14
52 3 6 3 10 0 10 -3 0 -13 -16 -21 -36z"/>
<path d="M5422 13147 c-6 -7 -15 -24 -21 -39 -16 -43 -75 -117 -89 -112 -10 3
-12 -3 -7 -26 4 -19 3 -30 -4 -30 -6 0 -11 7 -11 15 0 8 -5 15 -10 15 -11 0
-6 -67 5 -78 8 -8 39 31 67 83 11 22 33 58 48 80 15 22 29 55 32 73 5 36 5 37
-10 19z"/>
<path d="M6203 13123 c-7 -2 -13 -9 -13 -14 0 -6 5 -7 10 -4 6 3 10 -2 10 -12
1 -17 1 -17 15 1 21 27 9 42 -22 29z"/>
<path d="M6127 13113 c-4 -3 -7 -11 -7 -17 0 -6 5 -5 12 2 6 6 9 14 7 17 -3 3
-9 2 -12 -2z"/>
<path d="M14500 13105 c0 -5 11 -23 25 -41 14 -18 25 -42 25 -54 0 -11 6 -23
14 -26 8 -3 22 -17 31 -31 14 -21 15 -27 4 -34 -12 -7 -12 -9 0 -9 14 0 51
-37 51 -52 0 -4 5 -8 10 -8 13 0 3 21 -68 130 -63 96 -92 136 -92 125z"/>
<path d="M14438 13053 c-18 -5 -34 -40 -23 -51 4 -4 13 2 21 12 11 16 16 17
29 6 8 -7 15 -20 15 -30 0 -19 -84 -100 -105 -100 -7 0 -24 -9 -39 -21 -19
-15 -26 -30 -26 -55 l0 -34 -55 0 -55 0 0 -50 0 -50 -55 0 c-42 0 -55 3 -55
15 0 8 -4 15 -9 15 -5 0 -14 -7 -21 -15 -10 -13 -9 -15 9 -15 20 0 21 -5 21
-105 l0 -105 73 -2 72 -2 -70 -5 -70 -6 -3 -43 c-3 -37 0 -43 22 -52 23 -8 26
-15 26 -60 0 -49 1 -50 29 -50 28 0 30 -2 33 -47 l3 -48 53 -3 52 -3 0 -157 0
-157 -73 1 c-39 0 -85 1 -102 2 l-30 2 3 86 c2 53 -1 91 -7 97 -6 6 -11 37
-11 69 0 51 -2 58 -20 58 -17 0 -20 -7 -20 -49 0 -54 -8 -61 -66 -61 l-34 0 0
-54 c0 -43 4 -55 17 -58 12 -2 17 -14 17 -48 l1 -45 50 -5 50 -5 3 -52 3 -53
110 0 109 0 0 -50 0 -50 50 0 50 0 0 -50 0 -50 -50 0 -50 0 0 -60 c0 -53 2
-60 20 -60 17 0 20 -7 20 -50 0 -46 -2 -50 -24 -50 -23 0 -25 5 -28 48 l-3 47
-45 5 -45 5 -5 54 c-7 72 -30 82 -30 13 0 -75 -2 -76 -211 -73 l-179 2 0 -50
0 -51 -50 0 c-44 0 -50 -3 -56 -24 -3 -13 -4 -37 -2 -52 3 -27 6 -29 56 -32
l53 -3 -3 -52 -3 -52 -103 -3 -103 -3 3 -52 3 -52 145 0 145 0 8 150 c4 83 9
156 12 163 3 9 20 12 52 10 48 -3 48 -3 45 -35 -6 -61 4 -73 59 -73 l49 0 0
-98 c0 -63 4 -102 12 -110 9 -9 -14 -12 -107 -12 l-118 0 5 -307 c4 -170 4
-314 1 -320 -3 -8 -24 -13 -54 -13 l-49 0 0 -91 c0 -106 -9 -129 -50 -129 -17
0 -30 5 -30 10 0 6 -4 10 -10 10 -5 0 -10 -22 -10 -49 0 -57 -11 -68 -65 -73
l-40 -3 -5 -100 -5 -100 -53 -3 -54 -3 4 -49 3 -49 -110 -3 -110 -3 -5 -55 -5
-55 -102 -3 -103 -3 0 61 0 60 -50 0 -50 0 0 100 0 100 -154 0 c-85 0 -157 3
-159 8 -3 4 -8 53 -12 109 l-7 101 56 6 c183 19 166 15 166 48 0 47 -16 68
-53 68 -21 0 -36 -7 -45 -20 -9 -14 -23 -20 -51 -20 -42 0 -67 -20 -73 -60
l-3 -25 -202 -3 -203 -2 0 -89 c0 -115 -6 -121 -123 -121 -51 0 -87 4 -87 10
0 6 20 10 45 10 l45 0 0 45 0 45 -100 0 -100 0 0 104 c0 72 -4 107 -13 114 -7
6 -52 10 -107 9 l-95 -2 -3 -47 -3 -48 38 0 c22 0 44 -5 51 -12 8 -8 12 -47
12 -110 l0 -98 -110 0 -110 0 0 95 0 95 -35 0 -35 0 0 -100 c0 -60 -4 -100
-10 -100 -5 0 -10 23 -10 50 0 28 -4 50 -10 50 -5 0 -10 20 -10 44 0 50 -10
61 -55 61 -29 0 -30 2 -33 50 -2 27 -8 55 -14 62 -13 17 -110 17 -126 1 -7 -7
-12 -33 -12 -59 0 -26 -4 -51 -10 -54 -5 -3 -10 -25 -10 -49 0 -23 -4 -46 -9
-52 -5 -5 -11 -20 -14 -34 -4 -23 -4 -22 -6 5 -1 17 -6 37 -12 45 -8 11 -9 1
-5 -39 3 -35 1 -60 -6 -69 -6 -7 -17 -41 -23 -75 l-12 -62 -8 88 c-4 48 -12
87 -17 87 -5 0 -8 -8 -7 -17 1 -10 -3 -37 -9 -60 -14 -48 -9 -241 10 -346 9
-55 17 -73 41 -93 22 -19 32 -22 43 -13 14 11 22 6 81 -45 17 -15 20 -23 12
-38 -9 -17 -8 -18 10 -9 11 6 24 11 29 11 16 0 23 -31 11 -46 -17 -20 28 -56
62 -50 21 4 25 1 25 -17 -1 -14 8 -26 22 -32 12 -5 22 -16 22 -24 0 -8 18 -31
41 -53 22 -21 37 -43 34 -48 -3 -5 1 -7 9 -4 10 4 21 -6 33 -32 13 -28 27 -40
51 -46 25 -7 37 -18 48 -43 8 -19 21 -35 28 -35 8 0 18 -10 22 -22 4 -13 14
-28 22 -34 8 -6 12 -16 8 -23 -6 -8 -15 -4 -32 14 -13 14 -24 30 -24 36 0 5
-4 9 -9 9 -5 0 -13 9 -16 20 -7 23 -25 27 -25 5 0 -8 3 -15 8 -15 4 0 12 -10
18 -23 6 -12 41 -71 79 -132 59 -95 205 -382 205 -403 0 -4 9 -23 19 -43 32
-59 61 -168 61 -226 0 -61 -23 -149 -51 -200 -10 -17 -23 -72 -29 -120 -27
-211 -55 -343 -120 -563 -83 -278 -100 -353 -100 -442 0 -79 6 -98 31 -98 13
0 17 -5 12 -17 -5 -12 -2 -15 10 -10 10 4 17 1 17 -6 0 -21 153 -157 176 -157
4 0 22 -11 40 -25 18 -14 42 -25 53 -25 11 0 22 -4 26 -9 9 -15 66 -41 76 -35
13 7 43 -61 36 -80 -14 -35 -56 -39 -452 -44 -419 -5 -475 0 -475 39 0 11 9
71 19 132 37 211 62 505 55 662 -2 50 -12 131 -23 180 -28 132 -33 209 -21
310 13 107 27 156 69 250 35 76 35 123 0 132 -10 3 -19 14 -19 24 0 22 11 24
28 7 6 -6 14 -9 17 -6 3 3 -1 13 -10 22 -17 16 -263 180 -375 249 -36 22 -135
93 -222 158 -199 150 -213 157 -202 114 l6 -24 -44 17 c-23 9 -47 22 -51 29
-13 20 -23 16 -69 -30 -39 -38 -79 -85 -204 -241 -52 -66 -229 -232 -321 -303
-39 -30 -113 -76 -164 -101 -91 -46 -93 -48 -106 -94 -18 -65 -68 -113 -188
-183 -124 -73 -144 -91 -197 -179 -54 -89 -147 -188 -258 -274 -248 -193 -329
-278 -357 -371 -15 -52 -15 -59 2 -106 18 -51 67 -133 104 -172 12 -12 21 -27
21 -32 0 -6 17 -22 37 -35 59 -39 77 -55 70 -63 -4 -3 1 -15 10 -25 15 -17 15
-20 1 -34 -33 -33 -331 -71 -461 -58 l-68 7 -29 56 c-16 31 -59 87 -95 124
-83 85 -86 66 32 287 28 52 80 169 116 260 36 91 97 246 136 345 39 99 86 203
105 230 74 109 184 199 327 269 137 68 202 145 258 308 105 299 163 453 210
553 25 55 83 170 129 256 79 151 93 191 72 204 -12 8 -13 25 -1 25 5 0 11 -9
14 -20 12 -46 41 -8 69 90 33 114 38 134 38 173 0 24 5 37 13 37 7 0 23 23 35
51 19 47 20 54 7 86 -11 25 -11 33 -3 31 7 -3 15 -15 18 -28 l6 -24 17 24 c9
13 17 32 17 41 0 10 6 19 13 22 9 3 9 9 -1 26 -11 18 -10 22 4 28 9 3 19 1 23
-6 11 -17 34 14 51 66 27 87 -12 518 -51 558 -21 21 -26 7 -9 -24 7 -15 4 -25
-16 -46 -29 -31 -42 -26 -26 10 10 21 9 26 -10 36 -16 8 -22 8 -29 -2 -5 -9
-11 -10 -21 -2 -13 11 -18 13 -38 13 -5 0 -10 4 -10 10 0 5 6 7 13 5 14 -5 51
41 43 54 -3 5 -18 11 -34 14 -23 5 -31 14 -40 45 -16 53 -33 67 -64 51 -13 -7
-30 -15 -38 -19 -8 -4 -19 -23 -23 -44 -10 -41 -21 -46 -38 -15 -11 21 -5 31
25 42 4 1 1 20 -8 41 -11 26 -21 36 -30 33 -19 -7 -40 18 -32 38 7 18 -2 45
-15 45 -6 0 -6 -7 -1 -17 10 -20 5 -43 -9 -43 -5 0 -9 25 -9 56 0 41 -3 53
-12 48 -10 -6 -10 -4 0 8 9 11 11 29 6 55 -7 36 -6 37 11 23 17 -14 17 -14 4
8 -8 12 -19 22 -25 22 -16 0 -23 57 -10 70 8 8 2 19 -22 38 -18 15 -32 32 -32
39 0 11 -30 33 -44 33 -3 0 -6 -9 -6 -20 0 -24 -8 -25 -36 -6 -12 8 -30 15
-40 15 -51 1 -101 15 -121 34 -20 18 -27 17 -25 -4 1 -8 -36 -4 -44 4 -13 13
-33 -28 -34 -66 0 -34 -3 -38 -22 -35 -26 3 -37 50 -18 73 12 14 5 55 -11 65
-13 9 6 65 23 68 12 2 15 -2 12 -16 -7 -24 19 -45 46 -37 25 8 26 34 3 41 -10
3 -25 10 -33 15 -8 5 -26 15 -40 21 -14 7 -29 18 -33 25 -14 22 -30 14 -25
-12 3 -13 2 -22 -2 -20 -4 3 -13 -2 -20 -10 -7 -8 -20 -15 -29 -15 -12 0 -13
-2 -3 -9 10 -6 8 -10 -10 -14 -51 -14 -56 -10 -56 44 -1 28 -3 54 -6 57 -4 3
-31 7 -61 10 -62 5 -69 10 -45 33 15 14 22 15 56 3 25 -8 42 -10 48 -4 14 14
29 12 20 -1 -4 -7 -1 -10 7 -7 8 3 12 14 11 24 -5 25 -1 23 -49 14 -33 -6 -43
-4 -43 6 0 7 -9 18 -20 24 -15 8 -20 8 -20 -1 0 -8 -4 -9 -13 0 -8 6 -17 8
-20 4 -4 -3 -7 -1 -7 6 0 7 -6 11 -12 9 -18 -6 -43 21 -42 46 1 15 0 16 -3 4
-7 -29 -23 -20 -23 12 0 23 4 30 20 30 13 0 20 7 20 20 0 22 -4 23 -77 20
l-53 -2 0 61 c0 54 2 61 20 61 17 0 20 7 20 50 0 43 -3 50 -20 50 -17 0 -20 7
-20 50 l0 50 -59 0 -60 0 -4 -47 -3 -48 -2 48 -2 47 -95 0 -95 0 0 -50 c0 -33
4 -51 13 -52 6 0 39 -2 72 -3 127 -5 115 0 115 -50 l0 -45 -80 0 -80 0 0 -53
c0 -58 -4 -68 -26 -60 -9 3 -14 20 -14 48 0 52 -16 67 -67 63 l-38 -3 0 -55 0
-55 45 -5 45 -5 6 -105 c4 -58 7 -106 8 -107 0 -2 24 -3 51 -3 l50 0 0 -50 0
-50 -50 0 -50 0 0 -55 0 -55 50 0 50 0 0 -106 c0 -93 -2 -105 -16 -100 -9 3
-18 6 -20 6 -2 0 -4 23 -4 50 0 28 -4 50 -10 50 -5 0 -10 -17 -10 -38 0 -37
-14 -62 -33 -62 -6 0 -7 36 -2 91 9 124 4 129 -122 129 l-93 0 0 -60 0 -60 50
0 49 0 3 -102 3 -103 53 -3 52 -3 0 -54 c0 -45 -3 -55 -20 -60 -29 -9 -29 -90
0 -98 17 -4 20 -14 20 -56 l0 -51 -93 0 c-59 0 -97 4 -105 12 -7 7 -12 45 -12
99 0 70 -3 88 -16 93 -9 3 -100 6 -203 6 -173 0 -189 2 -205 19 -11 13 -16 31
-14 53 l3 33 -95 0 -95 0 -3 -46 -3 -47 93 -7 c51 -4 99 -12 106 -18 9 -7 12
-37 11 -104 l-2 -93 -108 0 -109 0 0 93 c0 59 -4 97 -12 105 -8 8 -46 12 -105
12 l-92 0 -3 103 -3 102 -55 1 -55 1 -3 101 -3 101 -47 3 -47 3 -3 112 -3 112
-102 3 -102 3 0 160 0 160 218 3 217 2 0 44 0 43 197 6 c108 4 269 7 358 7
180 0 189 3 183 62 -3 32 -4 33 -57 36 -43 3 -54 7 -58 23 -4 15 -14 19 -53
19 -40 0 -49 -3 -53 -21 -5 -17 -12 -20 -54 -17 -40 3 -48 6 -48 23 0 34 -15
45 -60 45 -34 0 -47 5 -55 20 -7 12 -21 20 -38 20 -25 1 -26 2 -9 14 13 11 15
19 8 38 -12 31 -29 44 -68 53 -31 6 -33 9 -33 48 0 57 13 75 30 42 7 -14 17
-25 22 -25 11 0 30 49 23 59 -5 10 17 61 27 61 4 0 12 -18 18 -40 6 -21 20
-46 32 -54 19 -13 19 -17 7 -32 -11 -13 -11 -18 -2 -21 9 -3 10 -10 3 -24 -10
-17 -8 -19 22 -15 18 2 39 -1 46 -7 23 -19 34 14 12 35 -27 25 -43 23 -35 -4
6 -22 5 -22 -9 -4 -13 16 -13 21 0 41 10 16 12 25 5 30 -6 3 -11 3 -11 -2 0
-4 -7 2 -15 14 -9 12 -14 28 -13 35 2 7 -3 12 -11 10 -9 -2 -11 3 -7 14 3 9 2
22 -3 28 -15 19 -61 141 -61 163 0 12 -6 23 -12 26 -10 3 -9 8 2 22 13 16 13
18 0 13 -17 -6 -17 -28 0 -116 10 -49 10 -69 0 -92 -14 -34 -53 -74 -50 -50 8
54 3 59 -62 62 -62 3 -63 4 -66 33 -2 17 -9 36 -15 44 -9 12 -9 13 1 7 13 -8
17 6 5 18 -14 14 -13 46 2 46 8 0 15 4 15 8 0 4 13 9 29 10 17 1 40 6 53 11
17 6 3 10 -60 16 -67 6 -85 11 -100 29 -10 12 -26 20 -38 18 -11 -2 -27 4 -34
13 -7 8 -19 15 -26 15 -11 0 -14 17 -14 70 l0 70 -51 0 -52 0 5 -44 5 -43
-106 -9 -106 -9 -3 -93 -3 -93 -29 -11 c-28 -9 -30 -14 -30 -59 0 -42 -3 -49
-20 -49 -17 0 -20 -7 -20 -50 0 -43 -3 -50 -20 -50 -25 0 -26 -17 -2 -23 9 -3
-9 -5 -42 -6 -51 -1 -57 1 -46 14 11 13 5 15 -49 15 -48 0 -61 3 -61 15 0 11
-12 15 -50 15 -36 0 -50 -4 -50 -14 0 -19 22 -26 88 -27 31 -1 47 -4 35 -6
-20 -4 -23 -11 -23 -54 l0 -49 -54 0 c-40 0 -55 -4 -60 -16 -10 -25 -7 -74 4
-74 6 0 10 -80 10 -220 l0 -220 -177 2 -178 3 -3 158 -3 158 23 -3 c20 -3 23
-10 26 -50 6 -91 22 -48 22 57 0 63 -4 105 -10 105 -5 0 -10 23 -10 50 0 28 5
50 10 50 6 0 10 43 10 110 0 67 -4 110 -10 110 -5 0 -10 -22 -10 -50 l0 -50
-58 0 -59 0 -12 40 c-9 30 -9 44 0 58 16 25 5 52 -21 52 -11 0 -20 6 -20 13 0
8 -9 22 -19 31 -20 18 -19 39 5 67 8 8 19 30 25 47 9 25 8 35 -4 46 -13 13
-18 6 -47 -55 -18 -39 -34 -88 -37 -109 -3 -22 -9 -37 -13 -35 -25 16 -190
-541 -244 -820 -50 -260 -91 -577 -107 -825 -34 -532 61 -1192 251 -1735 57
-166 92 -248 99 -236 4 6 11 3 19 -9 10 -16 9 -18 -3 -14 -16 7 -20 -6 -7 -21
4 -6 19 -37 31 -70 42 -108 201 -426 264 -529 56 -92 185 -286 240 -361 120
-164 265 -344 342 -425 121 -128 395 -399 455 -450 36 -30 67 -58 70 -61 16
-17 303 -241 338 -263 24 -15 51 -35 62 -46 10 -10 33 -26 51 -36 42 -21 123
-78 173 -121 22 -18 44 -33 49 -33 5 0 31 -16 56 -35 26 -19 58 -39 72 -45 13
-6 44 -24 69 -40 25 -16 70 -43 100 -58 30 -16 105 -58 165 -93 61 -34 169
-89 242 -120 243 -105 708 -246 983 -298 326 -62 773 -90 1172 -73 781 32
1348 187 2088 568 29 14 201 117 260 154 8 5 29 17 45 26 82 46 426 285 547
382 256 202 536 475 680 662 15 19 64 83 110 141 46 58 99 128 118 155 19 27
52 74 74 104 73 103 279 453 351 599 170 341 275 645 365 1051 138 629 152
1406 35 2005 -63 325 -154 661 -225 840 -15 39 -40 102 -55 140 -29 77 -134
314 -145 330 -4 6 -26 46 -50 90 -24 44 -52 96 -62 115 -27 49 -56 86 -62 79
-8 -8 11 -44 47 -90 15 -20 27 -41 27 -47 0 -7 5 -12 10 -12 6 0 10 -6 10 -14
0 -7 8 -24 18 -37 10 -13 28 -51 42 -84 13 -33 36 -81 52 -106 15 -25 31 -60
34 -77 4 -17 13 -37 20 -43 15 -12 19 -49 7 -49 -5 0 -20 14 -35 32 -27 33
-27 33 -28 8 -1 -22 -2 -23 -13 -8 -8 10 -12 41 -11 81 1 49 -1 64 -11 61 -18
-7 -95 70 -95 95 0 12 4 21 9 21 17 0 20 29 6 57 -12 23 -15 25 -21 9 -9 -25
-24 -1 -24 40 0 18 -8 38 -20 49 -11 10 -20 29 -20 42 0 13 -6 23 -14 23 -19
0 -40 26 -26 35 5 3 10 11 10 17 0 7 -5 7 -14 -1 -11 -9 -18 -6 -35 15 -12 15
-21 33 -21 40 0 7 -6 11 -14 8 -10 -4 -12 2 -9 20 4 20 1 25 -18 28 -15 2 -26
12 -30 28 -6 21 -7 22 -9 5 -1 -11 -6 -1 -11 22 -11 45 -25 61 -51 56z m0
-206 c4 -56 -13 -63 -22 -9 -9 54 -8 64 7 60 6 -3 13 -25 15 -51z m-88 -271
c0 -71 -4 -97 -15 -106 -13 -11 -15 0 -15 92 0 58 3 108 6 111 17 17 24 -12
24 -97z m290 -91 c0 -8 -4 -15 -10 -15 -5 0 -10 7 -10 15 0 8 5 15 10 15 6 0
10 -7 10 -15z m-7530 -189 c0 -2 -7 -7 -16 -10 -8 -3 -12 -2 -9 4 6 10 25 14
25 6z m7654 -11 c3 -8 1 -15 -4 -15 -6 0 -10 7 -10 15 0 8 2 15 4 15 2 0 6 -7
10 -15z m223 -101 c-12 -12 -37 5 -30 21 5 15 7 15 21 1 9 -9 13 -18 9 -22z
m-9245 -30 c4 -53 -5 -72 -39 -85 -20 -8 -24 -14 -19 -34 7 -27 6 -28 -18 -19
-19 7 -22 64 -3 64 9 0 11 12 9 39 -5 49 12 81 42 81 21 0 24 -5 28 -46z
m9277 -46 c0 -13 -4 -32 -8 -42 -7 -18 -9 -17 -24 12 -13 27 -13 32 -1 32 8 0
14 5 14 10 0 6 5 10 10 10 6 0 10 -10 9 -22z m-9359 -230 c0 -28 -5 -40 -21
-48 -11 -7 -23 -9 -27 -6 -3 3 0 6 6 6 8 0 12 24 13 73 1 69 1 71 14 42 8 -16
14 -47 15 -67z m8890 1 c0 -31 -4 -48 -10 -44 -5 3 -10 26 -10 51 0 24 5 44
10 44 6 0 10 -23 10 -51z m-8947 -61 c3 -13 3 -38 -1 -57 -6 -30 -9 -32 -21
-18 -9 11 -11 29 -6 57 7 44 20 52 28 18z m8847 -44 c0 -28 6 -51 16 -61 9
-10 14 -29 12 -52 -3 -33 -6 -36 -35 -39 l-33 -3 0 94 c0 95 3 107 27 107 9 0
13 -14 13 -46z m618 21 c-11 -25 -28 -34 -28 -16 0 9 28 41 35 41 3 0 -1 -11
-7 -25z m-9598 -385 c0 -5 7 -10 15 -10 18 0 22 -86 4 -92 -7 -2 -12 -19 -13
-38 -1 -26 -6 -36 -20 -38 -17 -4 -18 1 -12 50 3 29 6 72 6 96 0 23 5 42 10
42 6 0 10 -4 10 -10z m870 -47 c0 -21 7 -51 15 -67 8 -15 15 -46 15 -68 0 -32
-3 -39 -17 -36 -14 2 -19 15 -21 56 l-3 52 -50 0 -49 0 0 50 0 50 55 0 55 0 0
-37z m80 -14 c0 -36 -4 -49 -12 -47 -19 7 -20 98 -2 98 10 0 14 -14 14 -51z
m-421 -63 c7 -8 11 -32 9 -53 -3 -37 -4 -38 -45 -41 l-43 -3 0 55 0 56 34 0
c18 0 39 -6 45 -14z m121 -42 l0 -55 -47 3 c-48 3 -48 3 -51 41 -4 50 11 67
59 67 l39 0 0 -56z m2465 9 c2 -10 4 -21 4 -25 1 -5 5 -8 11 -8 5 0 6 7 3 17
-4 11 -3 14 6 9 7 -5 10 -14 7 -21 -2 -7 1 -18 7 -24 9 -10 3 -12 -28 -9 -36
3 -40 6 -43 31 -2 16 2 35 9 43 14 17 19 14 24 -13z m-3039 -30 c-2 -15 -8
-29 -13 -30 -5 -2 -8 10 -5 27 5 37 22 40 18 3z m-100 -18 c4 -10 13 -13 25
-10 27 9 24 -8 -8 -46 -26 -30 -27 -39 -31 -155 -3 -68 -8 -124 -13 -124 -5 0
-9 -47 -9 -105 0 -85 -3 -103 -14 -99 -16 6 -29 44 -15 44 11 0 7 33 -9 73
-15 36 -15 35 3 53 10 10 15 35 15 68 0 28 5 57 11 63 6 6 10 49 10 99 0 49 2
104 6 122 6 34 20 42 29 17z m884 -76 l0 -50 -47 3 -48 3 -3 48 -3 47 50 0 51
0 0 -51z m2592 -210 c3 -31 0 -43 -14 -50 -31 -17 -38 -10 -38 41 0 46 2 50
24 50 21 0 24 -6 28 -41z m-3532 -279 c0 -11 -4 -20 -10 -20 -5 0 -10 9 -10
20 0 11 5 20 10 20 6 0 10 -9 10 -20z m-20 -70 c0 -5 -4 -10 -10 -10 -5 0 -10
5 -10 10 0 6 5 10 10 10 6 0 10 -4 10 -10z m4035 -32 c-1 -13 -3 -38 -4 -55
-2 -53 -21 -38 -21 16 0 30 5 51 13 54 6 3 13 6 13 6 1 1 0 -9 -1 -21z m235
-89 c0 -5 -4 -9 -10 -9 -5 0 -10 7 -10 16 0 8 5 12 10 9 6 -3 10 -10 10 -16z
m-2472 -11 c8 -8 12 -46 12 -105 l0 -93 -50 0 -50 0 0 45 c0 48 0 48 -90 57
-21 3 -25 9 -28 42 -5 64 -3 66 101 66 59 0 97 -4 105 -12z m1665 -265 c-2
-62 -2 -60 -13 -43 -11 17 -13 73 -3 83 14 15 18 5 16 -40z m-1555 -60 c6 -15
12 -38 12 -52 0 -39 11 -49 55 -53 39 -3 40 -4 43 -44 4 -58 -9 -65 -115 -62
l-88 3 -3 52 -3 52 -47 3 -47 3 -3 48 c-4 69 5 77 102 77 78 0 81 -1 94 -27z
m652 -83 c0 -95 2 -110 16 -110 12 0 14 -3 6 -12 -8 -10 -40 -12 -124 -8
l-113 5 -3 97 c-4 138 -4 138 118 138 l100 0 0 -110z m102 -122 c-9 -9 -15 -9
-24 0 -9 9 -7 12 12 12 19 0 21 -3 12 -12z m4359 -8 c-3 -8 -6 -34 -9 -58 l-4
-43 -42 3 -41 3 -5 53 c-3 29 -3 55 -1 58 3 3 28 4 56 2 39 -2 49 -6 46 -18z
m-4781 -50 l0 -50 -48 0 c-26 0 -53 5 -60 12 -13 13 -17 70 -5 81 3 4 30 7 60
7 l53 0 0 -50z m2280 -26 c0 -17 -37 -60 -45 -53 -2 3 0 22 6 42 7 25 14 34
24 30 8 -3 15 -12 15 -19z m-2220 -179 c0 -30 -4 -55 -10 -55 -5 0 -10 25 -10
55 0 30 5 55 10 55 6 0 10 -25 10 -55z m2115 25 c3 -5 1 -10 -4 -10 -6 0 -11
5 -11 10 0 6 2 10 4 10 3 0 8 -4 11 -10z m5487 -92 c-9 -9 -12 -7 -12 12 0 19
3 21 12 12 9 -9 9 -15 0 -24z m-9830 -150 c-9 -9 -12 -7 -12 12 0 19 3 21 12
12 9 -9 9 -15 0 -24z m28 -44 c0 -8 -4 -14 -10 -14 -5 0 -10 9 -10 21 0 11 5
17 10 14 6 -3 10 -13 10 -21z m4170 -108 c0 -8 -4 -17 -9 -21 -5 -3 -12 -19
-16 -35 -4 -17 -11 -28 -16 -24 -9 5 -3 46 13 77 11 21 28 23 28 3z m5573 -46
c-3 -14 -10 -29 -16 -35 -6 -7 -8 -2 -3 15 3 14 6 36 6 50 0 20 2 22 10 10 5
-8 7 -26 3 -40z m-27 -125 c-6 -19 -14 -35 -18 -35 -11 0 -10 8 4 46 16 44 28
34 14 -11z m-5626 20 c0 -8 -4 -15 -10 -15 -5 0 -10 7 -10 15 0 8 5 15 10 15
6 0 10 -7 10 -15z m-4030 -50 c0 -8 -4 -17 -10 -20 -6 -4 -10 5 -10 20 0 15 4
24 10 20 6 -3 10 -12 10 -20z m9611 -147 c-15 -57 -35 -117 -44 -135 -10 -18
-17 -40 -17 -51 0 -10 -6 -26 -13 -36 -24 -33 -2 93 27 154 14 30 26 63 26 72
0 9 4 27 9 40 5 13 12 31 15 41 3 9 10 17 15 17 5 0 -3 -46 -18 -102z m-9531
-107 c0 -6 -4 -13 -10 -16 -5 -3 -10 1 -10 9 0 9 5 16 10 16 6 0 10 -4 10 -9z
m6091 -24 c-16 -16 -26 0 -10 19 9 11 15 12 17 4 2 -6 -1 -17 -7 -23z m-6018
-179 c3 -10 5 -18 2 -18 -10 0 -35 33 -35 46 0 13 2 13 13 2 7 -7 16 -21 20
-30z m6128 -6 c11 -29 5 -28 -16 4 -11 17 -12 25 -4 22 6 -2 16 -14 20 -26z
m-1371 -82 c0 -5 -5 -10 -11 -10 -5 0 -7 5 -4 10 3 6 8 10 11 10 2 0 4 -4 4
-10z m1420 -11 c0 -6 -4 -7 -10 -4 -5 3 -10 11 -10 16 0 6 5 7 10 4 6 -3 10
-11 10 -16z m-6120 -56 c0 -13 -3 -13 -15 -3 -8 7 -15 19 -15 27 0 13 3 13 15
3 8 -7 15 -19 15 -27z m6180 -69 c0 -8 -4 -12 -10 -9 -5 3 -10 10 -10 16 0 5
5 9 10 9 6 0 10 -7 10 -16z m-6130 -45 c0 -11 -4 -17 -10 -14 -5 3 -10 15 -10
26 0 11 5 17 10 14 6 -3 10 -15 10 -26z m50 -94 c0 -25 -17 -9 -29 27 l-11 32
20 -21 c11 -12 20 -29 20 -38z m76 -149 c-2 -6 -8 -1 -11 12 -4 12 -11 22 -16
22 -5 0 -9 10 -9 23 0 19 3 18 21 -12 11 -18 18 -38 15 -45z m6124 -216 c0
-10 -15 -31 -32 -46 -23 -21 -32 -36 -30 -53 2 -13 -1 -28 -7 -34 -8 -8 -11 2
-11 35 0 26 5 50 11 53 6 4 8 13 5 21 -5 14 43 56 56 48 5 -3 8 -13 8 -24z
m-73 -187 c-3 -10 -5 -4 -5 12 0 17 2 24 5 18 2 -7 2 -21 0 -30z m-5797 -14
c0 -11 -4 -17 -10 -14 -5 3 -10 13 -10 21 0 8 5 14 10 14 6 0 10 -9 10 -21z
m5780 -123 c0 -3 -4 -8 -10 -11 -5 -3 -10 -1 -10 4 0 6 5 11 10 11 6 0 10 -2
10 -4z m-80 -332 c0 -14 -4 -23 -10 -19 -5 3 -10 15 -10 26 0 10 5 19 10 19 6
0 10 -12 10 -26z"/>
<path d="M3274 13023 c-3 -10 -9 -27 -14 -38 -18 -45 -22 -60 -10 -49 12 12
42 104 34 104 -2 0 -7 -8 -10 -17z"/>
<path d="M6155 13019 c-10 -16 3 -75 20 -89 21 -17 15 -60 -8 -60 -10 0 -15 4
-12 10 3 6 -1 7 -9 4 -11 -4 -16 0 -16 14 0 12 -4 24 -10 27 -5 3 -10 16 -10
28 0 18 -2 19 -10 7 -15 -23 -12 -55 8 -73 13 -12 16 -27 14 -62 l-4 -47 -44
4 c-41 3 -44 2 -44 -22 0 -23 -2 -22 -25 13 -27 38 -26 68 1 46 9 -7 14 -8 14
-1 0 6 -6 13 -12 16 -10 5 -10 7 0 12 6 3 12 13 12 23 0 9 14 31 30 49 29 32
42 92 20 92 -5 0 -10 -15 -10 -34 0 -19 -5 -38 -11 -41 -16 -10 -24 4 -11 17
7 7 12 19 12 27 0 8 -25 -28 -56 -80 -71 -119 -234 -440 -234 -461 0 -9 6 -21
14 -27 11 -9 15 -6 20 16 18 74 41 114 71 121 25 7 29 13 27 35 -2 16 1 27 8
27 8 0 10 8 7 21 -4 15 0 23 14 26 15 4 19 14 19 49 0 37 4 46 23 53 12 5 23
5 25 0 2 -5 9 -6 15 -3 7 4 2 -3 -10 -15 -31 -30 -30 -61 1 -61 17 0 27 8 34
28 7 17 11 21 11 9 1 -21 -16 -53 -47 -88 -17 -20 -24 -41 -26 -85 -2 -32 1
-65 7 -71 6 -8 35 -13 77 -13 59 0 68 -2 73 -20 4 -15 14 -20 40 -20 33 0 64
20 50 33 -3 4 -26 7 -50 7 l-43 0 0 50 0 50 99 0 c110 0 111 1 111 72 0 31 -4
41 -20 45 -17 4 -20 14 -20 54 0 27 -4 49 -10 49 -5 0 -10 -22 -10 -50 0 -46
-2 -50 -24 -50 -34 0 -49 56 -27 98 5 9 12 50 16 90 7 69 6 72 -14 72 -17 0
-21 6 -21 29 0 16 -3 36 -6 45 -7 18 -30 21 -39 5z"/>
<path d="M7758 12985 c-39 -33 -35 -36 17 -12 25 12 45 24 45 29 0 16 -36 7
-62 -17z"/>
<path d="M12313 12964 c-15 -16 -16 -24 -4 -24 8 0 24 30 19 35 -2 2 -9 -3
-15 -11z"/>
<path d="M6730 12902 c0 -5 7 -13 16 -16 10 -4 14 -1 12 6 -5 15 -28 23 -28
10z"/>
<path d="M12244 12883 c-10 -16 -17 -34 -16 -42 2 -7 -1 -10 -7 -6 -6 3 -11
-1 -11 -9 0 -23 18 -29 36 -12 8 9 12 20 9 26 -3 5 0 10 8 10 19 0 28 37 12
50 -9 8 -17 3 -31 -17z"/>
<path d="M3222 12878 c-6 -7 -13 -31 -16 -53 -4 -28 -3 -33 3 -15 4 14 13 24
19 23 7 -2 12 9 12 27 0 33 -3 36 -18 18z"/>
<path d="M5225 12880 c-3 -5 -1 -18 4 -27 9 -15 10 -14 9 10 -3 30 -4 32 -13
17z"/>
<path d="M7663 12858 c-19 -25 -24 -38 -14 -38 11 0 35 39 28 46 -2 3 -9 -1
-14 -8z"/>
<path d="M5257 12853 c-12 -11 -8 -23 8 -23 8 0 15 7 15 15 0 16 -12 20 -23 8z"/>
<path d="M6785 12841 c-8 -15 3 -31 21 -31 9 0 14 7 12 17 -4 20 -24 28 -33
14z"/>
<path d="M7612 12761 c-23 -52 -29 -91 -12 -91 6 0 10 11 10 25 0 13 7 43 16
65 23 58 13 58 -14 1z"/>
<path d="M5220 12780 c-13 -8 -12 -10 3 -10 9 0 17 5 17 10 0 12 -1 12 -20 0z"/>
<path d="M6776 12755 c-8 -32 3 -77 18 -72 17 6 19 72 3 86 -12 9 -16 7 -21
-14z"/>
<path d="M6842 12760 c-14 -23 -16 -50 -3 -50 5 0 12 -8 14 -17 3 -10 5 -1 6
20 1 26 6 37 16 37 8 0 15 7 15 15 0 22 -33 18 -48 -5z"/>
<path d="M3172 12741 c-7 -19 -10 -36 -8 -38 8 -8 27 38 24 55 -3 11 -8 5 -16
-17z"/>
<path d="M5150 12730 c0 -22 5 -40 10 -40 6 0 10 8 10 18 0 9 3 27 6 40 5 16
2 22 -10 22 -12 0 -16 -10 -16 -40z"/>
<path d="M5198 12725 c-6 -28 6 -34 16 -9 8 22 7 34 -3 34 -5 0 -11 -11 -13
-25z"/>
<path d="M6896 12732 c-6 -10 4 -52 13 -52 11 1 56 38 51 43 -11 10 -59 16
-64 9z"/>
<path d="M8378 12673 c-2 -15 3 -62 10 -103 13 -71 10 -208 -5 -270 -6 -22 -4
-23 9 -12 40 32 47 225 14 351 -18 64 -23 72 -28 34z"/>
<path d="M6972 12678 c-17 -17 -15 -38 3 -38 9 0 15 9 15 25 0 29 -1 30 -18
13z"/>
<path d="M5151 12645 c-6 -19 -29 -52 -50 -73 -36 -37 -60 -97 -41 -104 7 -2
7 -15 1 -36 -13 -43 7 -43 35 1 42 67 56 107 43 123 -9 12 -9 13 3 9 16 -6 42
40 32 56 -3 6 0 16 6 24 11 14 6 35 -9 35 -4 0 -13 -16 -20 -35z m-44 -121 c4
-10 -1 -22 -12 -30 -23 -17 -28 -13 -19 20 7 29 22 34 31 10z"/>
<path d="M12140 12660 c-11 -20 -5 -60 8 -60 4 0 7 18 7 40 1 46 0 48 -15 20z"/>
<path d="M3150 12656 c0 -8 -3 -22 -7 -32 -4 -11 -3 -15 4 -11 13 8 23 57 12
57 -5 0 -9 -6 -9 -14z"/>
<path d="M7587 12603 c-4 -3 -7 -22 -6 -42 l1 -36 9 39 c9 39 8 52 -4 39z"/>
<path d="M11790 12580 c0 -11 5 -20 10 -20 6 0 10 9 10 20 0 11 -4 20 -10 20
-5 0 -10 -9 -10 -20z"/>
<path d="M3116 12544 c-4 -20 -5 -38 -3 -40 3 -3 8 11 11 32 4 20 5 38 3 40
-3 3 -8 -11 -11 -32z"/>
<path d="M12114 12544 c-9 -36 5 -197 18 -205 6 -4 8 -16 5 -28 -4 -16 -1 -21
15 -21 17 0 19 4 12 33 -11 54 -21 151 -16 165 6 18 -7 82 -18 82 -5 0 -13
-12 -16 -26z"/>
<path d="M7076 12537 c-15 -16 -16 -21 -5 -33 20 -20 40 -3 31 27 -7 24 -7 24
-26 6z"/>
<path d="M8887 12540 c-4 -14 0 -20 13 -20 10 0 20 9 23 20 4 14 0 20 -13 20
-10 0 -20 -9 -23 -20z"/>
<path d="M14770 12531 c0 -11 5 -23 10 -26 6 -3 10 3 10 14 0 11 -4 23 -10 26
-5 3 -10 -3 -10 -14z"/>
<path d="M7124 12523 c-8 -29 -6 -37 11 -39 18 -3 19 8 3 24 -10 10 -10 15 2
22 11 7 12 10 2 10 -8 0 -16 -8 -18 -17z"/>
<path d="M7583 12440 c0 -41 2 -58 4 -37 2 20 2 54 0 75 -2 20 -4 3 -4 -38z"/>
<path d="M3081 12415 c-11 -36 -21 -75 -20 -88 1 -16 4 -12 11 13 5 19 16 57
24 84 23 73 10 66 -15 -9z"/>
<path d="M4996 12434 c4 -16 7 -48 7 -72 -2 -49 16 -54 31 -9 7 20 5 35 -10
62 -25 47 -40 57 -28 19z"/>
<path d="M7120 12447 c0 -8 7 -21 16 -28 14 -11 15 -10 12 11 -3 26 -28 41
-28 17z"/>
<path d="M11680 12420 c-13 -6 -26 -12 -28 -14 -6 -6 63 -175 121 -296 30 -63
60 -132 68 -152 9 -27 19 -38 34 -38 17 0 20 6 20 44 0 24 -3 47 -7 51 -4 4
-4 13 -1 21 3 8 0 14 -6 14 -17 0 -13 24 8 42 19 16 19 17 -5 85 -13 37 -31
106 -39 152 -8 47 -17 86 -18 88 -10 9 -126 11 -147 3z m117 -32 c-3 -8 -6 -5
-6 6 -1 11 2 17 5 13 3 -3 4 -12 1 -19z m50 -320 c-3 -8 -6 -5 -6 6 -1 11 2
17 5 13 3 -3 4 -12 1 -19z"/>
<path d="M8723 12413 c-7 -2 -13 -14 -13 -25 0 -18 2 -19 21 -7 31 21 25 46
-8 32z"/>
<path d="M8891 12411 l-24 -7 26 -17 c27 -17 27 -17 27 8 0 14 -1 25 -2 24 -2
-1 -14 -4 -27 -8z"/>
<path d="M9627 12414 c-11 -12 3 -24 29 -24 27 0 32 15 8 24 -20 8 -29 8 -37
0z"/>
<path d="M13367 12413 c-14 -13 -7 -33 11 -33 24 0 32 8 25 26 -5 15 -25 19
-36 7z"/>
<path d="M10651 12280 c-1 -197 27 -180 -306 -180 -331 0 -305 -14 -305 161 0
110 -1 117 -19 112 -10 -2 -35 0 -55 5 l-36 10 0 -168 c0 -167 0 -169 26 -199
l26 -31 358 0 359 0 28 24 28 24 3 183 4 182 -51 -6 c-34 -4 -51 -2 -55 6 -2
7 -5 -49 -5 -123z"/>
<path d="M13425 12400 c3 -5 8 -10 11 -10 2 0 4 5 4 10 0 6 -5 10 -11 10 -5 0
-7 -4 -4 -10z"/>
<path d="M12960 12378 c0 -19 2 -20 10 -8 13 19 13 30 0 30 -5 0 -10 -10 -10
-22z"/>
<path d="M13223 12336 c-1 -48 1 -55 7 -33 5 16 14 34 20 42 9 10 7 18 -8 33
-18 18 -19 17 -19 -42z"/>
<path d="M8853 12376 c21 -16 30 -55 17 -71 -5 -6 -5 -17 -1 -24 10 -15 15 -8
25 31 8 37 -12 78 -38 78 -20 -1 -20 -1 -3 -14z"/>
<path d="M10485 12370 c-16 -4 -96 -8 -177 -9 l-148 -1 0 -70 0 -70 180 0 180
0 0 80 c0 44 -1 79 -2 79 -2 -1 -16 -5 -33 -9z"/>
<path d="M17601 12374 c1 -21 16 -47 21 -38 4 5 0 18 -8 29 -8 10 -14 15 -13
9z"/>
<path d="M10984 12353 c-10 -7 -39 -13 -66 -13 -39 0 -48 -3 -48 -17 0 -16 11
-18 100 -18 87 0 101 -2 114 -20 21 -28 20 -61 -4 -85 -17 -17 -33 -20 -115
-20 -78 0 -95 -3 -95 -15 0 -11 12 -15 45 -15 35 0 52 -6 70 -25 30 -29 31
-49 5 -75 -15 -15 -33 -20 -69 -20 -49 0 -50 -1 -71 -46 -24 -48 -89 -104
-122 -104 -13 0 -18 -7 -18 -29 0 -29 1 -29 27 -16 15 8 39 11 55 8 16 -3 34
0 43 7 9 7 39 17 66 21 40 6 56 5 75 -8 23 -14 24 -14 24 6 0 17 6 21 36 21
19 0 33 4 30 9 -9 15 17 29 59 33 38 3 39 4 41 40 0 20 7 47 16 60 23 36 28
66 12 79 -8 6 -14 20 -14 31 0 32 -32 118 -41 112 -5 -3 -9 4 -9 15 0 12 -5
21 -11 21 -6 0 -24 11 -41 25 -16 14 -24 25 -18 25 6 0 9 4 6 9 -10 15 -63 18
-82 4z"/>
<path d="M8707 12330 c-3 -8 -8 -31 -11 -50 -3 -19 -8 -45 -12 -57 -13 -46 12
-21 30 30 10 28 21 46 23 40 6 -18 23 -16 23 2 0 8 -5 15 -11 15 -7 0 -18 8
-25 18 -11 14 -13 15 -17 2z"/>
<path d="M4972 12299 c-9 -14 -10 -25 -2 -40 14 -26 30 -15 30 21 0 36 -12 45
-28 19z"/>
<path d="M12941 12294 c0 -11 3 -14 6 -6 3 7 2 16 -1 19 -3 4 -6 -2 -5 -13z"/>
<path d="M3045 12280 c-4 -12 -5 -24 -2 -27 3 -2 8 5 12 17 4 12 5 24 2 27 -3
2 -8 -5 -12 -17z"/>
<path d="M5083 12293 c-7 -3 -13 -17 -13 -31 l1 -27 15 28 c17 31 16 37 -3 30z"/>
<path d="M17617 12284 c-4 -4 -7 -14 -7 -23 0 -11 3 -12 11 -4 6 6 10 16 7 23
-2 6 -7 8 -11 4z"/>
<path d="M9550 12229 c-13 -24 -25 -38 -28 -31 -2 7 -9 12 -16 12 -19 0 -66
-54 -66 -76 0 -16 -2 -16 -10 -4 -5 8 -7 22 -5 31 3 9 -1 16 -9 16 -8 0 -12
-6 -9 -14 3 -8 0 -13 -7 -11 -8 2 -19 -7 -25 -19 -7 -13 -15 -20 -18 -16 -4 3
-7 0 -7 -8 0 -8 -9 -20 -20 -27 -11 -7 -20 -19 -20 -28 0 -11 -6 -13 -20 -9
-14 5 -20 2 -20 -10 0 -10 -7 -15 -17 -13 -18 3 -32 48 -34 111 -1 29 -5 37
-20 37 -16 0 -19 -8 -20 -62 -4 -204 10 -339 23 -224 6 53 22 76 52 76 29 -1
88 -62 89 -94 2 -30 0 -30 35 -13 20 9 57 11 137 7 61 -3 115 -2 122 3 6 4 53
7 103 6 60 -1 95 2 99 10 5 7 17 1 36 -19 16 -16 35 -30 43 -30 11 0 11 -3 -2
-15 -21 -22 -36 -18 -36 9 0 24 -22 51 -33 39 -4 -3 -4 -17 -1 -29 7 -28 -6
-31 -42 -8 -19 13 -32 15 -56 8 -33 -10 -51 -34 -25 -34 8 0 20 -6 26 -14 7
-8 28 -17 49 -21 20 -4 30 -10 23 -13 -8 -3 8 -11 37 -18 28 -7 70 -27 93 -44
23 -16 48 -30 54 -30 7 0 18 -6 24 -14 6 -7 34 -16 62 -19 28 -4 56 -11 63
-16 6 -5 34 -12 61 -15 28 -4 88 -14 134 -23 64 -13 86 -14 89 -5 6 18 19 15
24 -6 5 -17 19 -22 145 -53 23 -6 57 -9 75 -7 49 5 47 30 -6 85 -42 42 -46 51
-46 95 0 28 -7 59 -16 73 -23 35 -54 14 -54 -37 0 -52 -24 -73 -75 -68 -36 3
-45 29 -45 127 0 84 -2 93 -19 93 -15 0 -19 -10 -23 -56 -5 -60 -16 -74 -59
-74 -36 0 -49 18 -56 79 -4 33 -10 51 -19 51 -11 0 -14 -19 -14 -76 0 -42 -5
-93 -11 -113 -10 -35 -13 -37 -47 -34 -58 4 -66 19 -65 128 1 85 -1 95 -17 95
-14 0 -18 -11 -22 -56 -3 -33 -11 -60 -19 -65 -23 -15 -79 -11 -85 6 -4 10
-13 13 -25 10 -13 -4 -19 -1 -19 9 0 9 5 16 10 16 6 0 10 20 10 44 0 39 -3 45
-30 56 -35 15 -98 84 -106 116 -5 19 -13 22 -49 22 -61 0 -82 9 -89 37 -8 30
7 70 29 79 9 3 34 6 56 6 28 0 39 4 39 15 0 12 -17 15 -93 15 -104 0 -121 7
-134 58 l-8 34 -25 -43z m175 -290 c-8 -12 -35 -12 -35 0 0 11 22 20 33 14 4
-2 5 -9 2 -14z"/>
<path d="M13180 12190 c-19 -46 -39 -95 -45 -109 -5 -14 -17 -31 -25 -38 -12
-9 -13 -14 -2 -25 10 -10 14 -9 18 10 4 12 10 22 15 22 5 0 9 8 9 18 0 9 9 28
20 42 11 14 20 34 20 46 0 11 7 35 16 52 8 18 14 39 12 48 -2 9 -19 -21 -38
-66z"/>
<path d="M3026 12209 c-8 -42 0 -50 9 -9 4 17 5 34 2 36 -2 3 -7 -10 -11 -27z"/>
<path d="M8780 12210 c0 -11 5 -20 11 -20 7 0 18 -8 25 -17 12 -17 13 -17 20
1 5 13 0 24 -17 37 -31 24 -39 24 -39 -1z"/>
<path d="M8735 12201 c-3 -6 -8 -32 -10 -58 -5 -41 -2 -50 17 -65 13 -10 18
-18 11 -18 -6 0 -9 -9 -6 -20 4 -17 8 -18 20 -8 10 8 13 22 8 45 -4 20 -2 33
5 33 5 0 10 5 10 11 0 5 -4 8 -9 5 -5 -3 -11 3 -14 14 -3 11 -1 18 4 14 10 -6
12 17 3 40 -7 18 -30 21 -39 7z"/>
<path d="M5041 12159 c-17 -57 -27 -75 -40 -71 -13 2 -13 1 -16 -51 -1 -21 1
-40 5 -42 9 -6 73 181 68 197 -2 6 -10 -9 -17 -33z"/>
<path d="M4955 12170 c-3 -5 -1 -10 4 -10 6 0 11 5 11 10 0 6 -2 10 -4 10 -3
0 -8 -4 -11 -10z"/>
<path d="M8660 12154 c0 -8 5 -12 10 -9 6 4 8 11 5 16 -9 14 -15 11 -15 -7z"/>
<path d="M11380 12075 c0 -14 -9 -34 -20 -45 -25 -25 -25 -31 1 -61 18 -21 20
-32 15 -81 -3 -34 -2 -58 4 -58 12 0 18 41 24 168 4 85 3 102 -9 102 -9 0 -15
-10 -15 -25z"/>
<path d="M2997 12084 c-4 -4 -7 -17 -7 -28 1 -19 1 -20 11 -3 11 19 8 43 -4
31z"/>
<path d="M8620 12075 c-8 -9 -8 -15 -2 -15 12 0 26 19 19 26 -2 2 -10 -2 -17
-11z"/>
<path d="M11900 12052 c0 -18 11 -38 30 -57 16 -15 29 -31 28 -34 -2 -23 4
-41 12 -36 17 11 11 49 -15 87 -14 20 -25 41 -25 46 0 6 -7 12 -15 16 -11 4
-15 -2 -15 -22z"/>
<path d="M8686 12048 c3 -13 11 -24 15 -26 5 -2 9 -13 9 -24 0 -17 3 -18 15
-8 13 11 12 15 -5 37 -11 14 -17 29 -14 34 3 5 -2 9 -11 9 -12 0 -15 -6 -9
-22z"/>
<path d="M2977 12008 c-64 -285 -89 -436 -70 -425 6 4 16 51 22 104 7 54 21
130 31 168 20 74 36 175 27 175 -2 0 -7 -10 -10 -22z"/>
<path d="M4912 11982 c-2 -35 -6 -45 -23 -49 -18 -5 -20 -12 -17 -55 5 -49 -9
-77 -32 -63 -18 11 -11 -37 8 -51 10 -8 12 -13 5 -14 -26 0 -13 -30 12 -30 24
0 25 -3 21 -37 -3 -21 -5 -42 -5 -46 -1 -5 -6 -5 -11 -2 -6 4 -18 1 -26 -6 -8
-7 -14 -8 -12 -3 3 9 -4 14 -21 14 -8 0 -8 -31 2 -187 4 -54 -6 -66 -31 -41
-14 14 -14 13 -17 -69 -2 -48 1 -63 11 -63 8 0 14 -5 14 -11 0 -5 -4 -7 -10
-4 -6 4 -10 -14 -10 -47 0 -30 -4 -58 -9 -63 -13 -15 -25 -79 -13 -71 11 7 -9
-66 -32 -116 -10 -22 -15 -62 -15 -118 1 -47 -2 -92 -5 -101 -4 -9 -3 -61 1
-115 5 -55 7 -121 5 -149 -2 -27 -4 -167 -6 -310 -1 -143 -3 -306 -4 -362 l-2
-102 -27 -3 -28 -3 -3 -104 c-2 -74 -7 -107 -17 -118 -19 -19 -19 -87 -1 -103
8 -6 17 -33 19 -58 2 -26 4 22 5 106 l2 152 40 0 c37 0 41 3 47 30 4 24 8 28
19 19 16 -13 19 -39 5 -39 -5 0 -7 -17 -4 -39 3 -23 1 -41 -6 -45 -17 -11 -13
-26 5 -19 14 5 15 -1 9 -48 -7 -47 -6 -52 8 -41 8 7 18 28 21 47 4 19 12 37
18 41 7 4 8 3 4 -4 -4 -6 -3 -20 2 -29 15 -30 25 -96 13 -88 -6 3 -11 0 -11
-7 0 -14 20 -48 20 -34 0 5 6 4 13 -2 7 -6 12 -33 12 -66 -1 -30 2 -53 6 -50
4 2 10 -13 13 -34 4 -20 15 -64 26 -97 27 -88 33 -118 20 -110 -15 9 -12 -4 5
-21 8 -9 15 -26 15 -40 0 -13 5 -24 11 -24 11 0 10 13 -5 65 -31 111 -94 427
-111 555 -9 69 -20 154 -25 190 -21 145 -40 469 -40 684 0 210 11 388 41 666
31 283 71 509 135 757 25 97 43 178 40 180 -3 3 -8 -6 -11 -20 -7 -25 -8 -25
-30 -11 -15 9 -25 28 -28 47 -3 26 -4 24 -5 -11z m48 -87 c0 -8 -4 -15 -10
-15 -5 0 -10 7 -10 15 0 8 5 15 10 15 6 0 10 -7 10 -15z m-28 -82 c-3 -14 -11
-38 -18 -52 -14 -27 -18 -22 -28 36 -4 27 -2 32 17 36 12 2 25 5 28 6 3 0 4
-11 1 -26z m-66 -251 c1 -23 -2 -42 -7 -42 -5 0 -9 6 -9 14 0 7 -3 28 -7 46
-4 25 -3 32 7 28 8 -2 15 -22 16 -46z m-129 -639 c-3 -10 -5 -2 -5 17 0 19 2
27 5 18 2 -10 2 -26 0 -35z m0 -1140 c-3 -10 -5 -4 -5 12 0 17 2 24 5 18 2 -7
2 -21 0 -30z m20 -95 c-3 -8 -6 -5 -6 6 -1 11 2 17 5 13 3 -3 4 -12 1 -19z
m48 -159 c8 -23 1 -34 -14 -24 -13 8 -15 45 -2 45 5 0 13 -9 16 -21z"/>
<path d="M13094 11976 c-3 -9 -13 -16 -21 -16 -8 0 -13 -5 -11 -11 2 -6 6 -10
8 -9 36 7 50 15 50 26 0 20 -19 27 -26 10z"/>
<path d="M11998 11932 c-5 -17 -2 -22 13 -22 22 0 26 -28 4 -36 -33 -13 -14
-26 28 -19 l42 7 -19 -21 c-11 -11 -14 -21 -8 -21 22 0 12 -27 -13 -38 -14 -6
-25 -16 -25 -22 0 -6 -12 -10 -27 -8 -24 3 -29 8 -34 43 -4 27 -8 35 -13 24
-4 -8 -2 -28 4 -43 5 -15 10 -39 9 -54 l-1 -27 -13 30 c-11 25 -15 27 -20 13
-4 -10 -2 -39 4 -65 11 -48 17 -232 9 -288 -2 -16 -9 -29 -15 -28 -12 3 -87
-67 -80 -73 10 -11 107 54 107 71 0 4 8 18 19 31 15 19 19 42 20 116 1 51 6
97 11 102 19 19 29 -9 35 -104 8 -106 24 -135 27 -47 1 48 2 49 5 10 4 -45 24
-69 48 -59 11 4 15 20 15 56 0 36 4 52 15 56 27 11 45 -16 45 -67 l0 -49 50 0
49 0 3 103 3 102 50 5 50 5 3 48 c3 44 5 48 33 54 35 7 37 22 4 53 -13 12 -22
26 -20 30 3 4 -5 10 -18 14 -20 5 -20 7 -6 21 10 10 36 16 75 17 58 1 94 19
94 48 0 12 -75 5 -116 -10 -11 -5 -29 -3 -39 3 -22 12 -246 10 -279 -3 -14 -5
-28 -3 -41 6 -10 8 -25 14 -33 14 -8 0 -22 10 -31 22 l-18 21 -5 -21z m177
-52 c3 -5 1 -10 -4 -10 -6 0 -11 5 -11 10 0 6 2 10 4 10 3 0 8 -4 11 -10z
m212 -6 c-3 -3 -12 -4 -19 -1 -8 3 -5 6 6 6 11 1 17 -2 13 -5z"/>
<path d="M8682 11905 c0 -16 2 -22 5 -12 2 9 2 23 0 30 -3 6 -5 -1 -5 -18z"/>
<path d="M9260 11904 c0 -31 23 -28 28 4 2 15 -2 22 -12 22 -11 0 -16 -9 -16
-26z"/>
<path d="M7537 11900 c-16 -16 -16 -17 8 -28 14 -7 32 -12 40 -12 8 0 19 -9
25 -20 20 -37 77 -12 63 28 -3 6 0 12 6 12 6 0 11 -9 11 -21 0 -18 4 -20 33
-14 46 10 97 35 97 49 0 12 -118 15 -137 3 -12 -8 -71 -1 -104 11 -18 7 -29 5
-42 -8z m208 -20 c3 -5 2 -10 -4 -10 -5 0 -13 5 -16 10 -3 6 -2 10 4 10 5 0
13 -4 16 -10z"/>
<path d="M7974 11878 c2 -24 19 -26 43 -6 21 17 15 28 -16 28 -23 0 -28 -4
-27 -22z"/>
<path d="M17722 11875 c0 -16 2 -22 5 -12 2 9 2 23 0 30 -3 6 -5 -1 -5 -18z"/>
<path d="M12806 11882 c-3 -3 -6 -9 -6 -14 0 -11 37 -10 44 1 6 10 -30 22 -38
13z"/>
<path d="M7930 11866 c0 -9 5 -16 10 -16 6 0 10 4 10 9 0 6 -4 13 -10 16 -5 3
-10 -1 -10 -9z"/>
<path d="M11930 11870 c0 -5 -7 -10 -15 -10 -8 0 -15 -9 -15 -20 0 -11 4 -20
9 -20 5 0 7 -10 4 -22 -3 -13 -2 -19 2 -15 5 4 10 14 11 21 1 7 5 28 9 45 4
17 4 31 1 31 -3 0 -6 -4 -6 -10z"/>
<path d="M7483 11863 c-14 -5 -18 -43 -5 -43 16 1 44 29 37 39 -7 12 -13 12
-32 4z"/>
<path d="M8405 11856 c-20 -8 -25 -15 -17 -20 16 -10 74 13 66 25 -7 11 -12
11 -49 -5z"/>
<path d="M10560 11833 c0 -35 0 -36 20 -18 11 10 20 26 20 37 0 11 -7 18 -20
18 -16 0 -20 -7 -20 -37z"/>
<path d="M12854 11849 c-3 -5 -2 -9 3 -9 4 0 19 -3 32 -7 16 -4 22 -2 18 4 -9
15 -46 23 -53 12z"/>
<path d="M7830 11835 c0 -15 26 -20 54 -9 24 9 9 24 -25 24 -19 0 -29 -5 -29
-15z"/>
<path d="M12566 11843 c-20 -3 -25 -7 -17 -13 16 -9 51 -1 51 11 0 5 -1 8 -2
8 -2 -1 -16 -4 -32 -6z"/>
<path d="M9632 11831 c-11 -7 -10 -10 3 -15 26 -10 35 -7 35 9 0 17 -18 19
-38 6z"/>
<path d="M8596 11791 c-3 -18 -12 -42 -21 -51 -9 -10 -15 -29 -13 -42 3 -26
23 -27 23 -1 0 9 6 18 13 20 16 6 15 -18 -3 -53 -8 -16 -12 -38 -9 -51 3 -12
2 -28 -2 -35 -5 -7 -9 -20 -11 -28 -1 -8 -7 -16 -12 -18 -6 -2 -11 -14 -11
-27 0 -16 10 -27 35 -39 27 -13 35 -23 35 -43 0 -19 4 -24 16 -19 9 3 20 6 26
6 7 0 8 14 5 38 -4 20 -2 79 4 131 10 77 9 95 -2 103 -11 7 -11 11 -1 15 20 8
13 26 -9 20 -21 -6 -42 24 -22 30 6 2 9 14 7 26 -2 12 3 7 12 -13 9 -19 19
-30 21 -23 2 7 0 20 -6 31 -5 10 -8 28 -5 39 5 17 1 19 -29 19 -32 -1 -36 -4
-41 -35z m52 -148 c-2 -14 -8 -28 -14 -30 -16 -5 -24 33 -11 46 19 19 28 12
25 -16z m-14 -138 c3 -8 1 -15 -4 -15 -6 0 -10 7 -10 15 0 8 2 15 4 15 2 0 6
-7 10 -15z"/>
<path d="M9192 11819 c2 -7 10 -15 17 -17 8 -3 12 1 9 9 -2 7 -10 15 -17 17
-8 3 -12 -1 -9 -9z"/>
<path d="M9430 11820 c0 -5 6 -10 14 -10 8 0 18 5 21 10 3 6 -3 10 -14 10 -12
0 -21 -4 -21 -10z"/>
<path d="M9548 11823 c12 -2 32 -2 45 0 12 2 2 4 -23 4 -25 0 -35 -2 -22 -4z"/>
<path d="M9348 11803 c7 -3 16 -2 19 1 4 3 -2 6 -13 5 -11 0 -14 -3 -6 -6z"/>
<path d="M11280 11790 c0 -5 5 -10 10 -10 6 0 10 5 10 10 0 6 -4 10 -10 10 -5
0 -10 -4 -10 -10z"/>
<path d="M9300 11781 c0 -11 26 -22 34 -14 12 12 5 23 -14 23 -11 0 -20 -4
-20 -9z"/>
<path d="M12618 11749 c-34 -20 -17 -29 52 -29 70 0 81 5 58 28 -15 15 -86 15
-110 1z"/>
<path d="M12592 11645 c0 -16 2 -22 5 -12 2 9 2 23 0 30 -3 6 -5 -1 -5 -18z"/>
<path d="M8540 11629 c0 -5 5 -7 10 -4 6 3 10 8 10 11 0 2 -4 4 -10 4 -5 0
-10 -5 -10 -11z"/>
<path d="M12390 11600 c-12 -22 -10 -87 3 -82 4 1 30 2 57 2 l50 0 0 50 0 50
-50 0 c-39 0 -51 -4 -60 -20z"/>
<path d="M2888 11545 c-3 -11 -9 -47 -12 -80 l-6 -60 16 48 c8 27 14 63 12 80
-3 26 -5 28 -10 12z"/>
<path d="M7392 11403 l-2 -103 65 0 65 0 0 44 c0 30 -5 46 -15 50 -17 6 -21
36 -5 36 6 0 10 16 10 35 0 19 -4 35 -10 35 -5 0 -10 -15 -10 -33 0 -50 -20
-72 -56 -60 -25 8 -30 16 -35 54 -4 30 -6 12 -7 -58z"/>
<path d="M2857 11385 c-8 -23 -27 -238 -26 -275 2 -26 8 10 29 172 12 94 10
145 -3 103z"/>
<path d="M8685 11360 c-3 -5 -1 -10 4 -10 6 0 11 5 11 10 0 6 -2 10 -4 10 -3
0 -8 -4 -11 -10z"/>
<path d="M11940 11286 c0 -8 5 -18 10 -21 6 -3 10 3 10 14 0 12 -4 21 -10 21
-5 0 -10 -6 -10 -14z"/>
<path d="M12040 11252 c0 -53 -12 -72 -47 -72 -21 0 -23 -4 -23 -50 l0 -50
-45 0 c-34 0 -47 5 -55 20 -16 30 -82 27 -124 -5 -18 -14 -37 -25 -42 -25 -5
0 -14 -10 -19 -22 -7 -16 -22 -25 -47 -29 -21 -3 -47 -14 -57 -23 -18 -16 -20
-16 -40 5 l-20 22 -12 -27 c-7 -14 -17 -27 -23 -27 -6 -1 -18 -2 -26 -3 -11
-1 -16 -15 -18 -48 l-3 -48 45 0 c35 0 49 -5 58 -20 9 -15 24 -20 53 -20 44 0
65 -14 65 -42 0 -16 11 -18 105 -18 l105 0 0 50 0 50 50 0 50 0 0 -50 c0 -43
3 -50 20 -50 19 0 20 7 20 100 l0 100 48 0 c26 0 53 5 60 12 8 8 12 46 12 104
l0 92 -30 11 c-28 9 -30 13 -30 60 0 39 -4 51 -15 51 -11 0 -15 -12 -15 -48z
m-327 -257 c-3 -9 -8 -14 -10 -11 -3 3 -2 9 2 15 9 16 15 13 8 -4z m45 -10
c-6 -14 -15 -25 -20 -25 -13 0 -9 38 5 43 24 10 26 7 15 -18z"/>
<path d="M11745 11220 c-14 -14 -25 -30 -25 -36 0 -5 3 -5 8 1 12 17 60 38 71
31 6 -4 11 -14 11 -22 0 -11 8 -14 27 -12 39 4 42 28 3 28 -27 0 -30 2 -20 19
9 17 7 20 -20 19 -18 -1 -39 -11 -55 -28z"/>
<path d="M7830 11130 l0 -50 50 1 50 2 0 48 0 49 -50 0 -50 0 0 -50z"/>
<path d="M11615 11160 c-16 -5 -50 -14 -75 -20 -25 -6 -54 -17 -65 -24 -11 -7
-40 -14 -65 -15 -90 -5 -110 -11 -110 -33 0 -6 10 -7 28 -3 15 4 33 8 40 8 6
0 12 4 12 9 0 4 7 8 15 8 8 0 14 -3 14 -7 -3 -21 3 -24 24 -11 32 21 103 31
125 17 15 -9 26 -6 59 17 51 36 71 64 46 63 -10 -1 -31 -5 -48 -9z"/>
<path d="M9080 11100 c0 -5 5 -10 10 -10 6 0 10 5 10 10 0 6 -4 10 -10 10 -5
0 -10 -4 -10 -10z"/>
<path d="M9145 11090 c3 -5 12 -7 20 -3 21 7 19 13 -6 13 -11 0 -18 -4 -14
-10z"/>
<path d="M7681 11076 c-12 -14 -5 -26 16 -26 15 0 18 26 4 34 -5 3 -14 0 -20
-8z"/>
<path d="M11250 11059 c0 -5 5 -7 10 -4 6 3 10 8 10 11 0 2 -4 4 -10 4 -5 0
-10 -5 -10 -11z"/>
<path d="M2821 11044 c0 -11 3 -14 6 -6 3 7 2 16 -1 19 -3 4 -6 -2 -5 -13z"/>
<path d="M11663 11045 c0 -8 4 -12 9 -9 5 3 6 10 3 15 -9 13 -12 11 -12 -6z"/>
<path d="M2805 10965 c-4 -31 -5 -58 -2 -61 3 -3 9 20 12 51 4 31 5 58 2 61
-3 3 -9 -20 -12 -51z"/>
<path d="M7607 10990 c-4 -16 0 -20 19 -20 17 0 24 6 24 20 0 13 -7 20 -19 20
-10 0 -21 -9 -24 -20z"/>
<path d="M11217 10930 c-11 -40 -8 -60 8 -60 16 0 18 19 6 60 l-7 25 -7 -25z"/>
<path d="M9447 10873 c-10 -9 -9 -23 1 -23 5 0 9 7 9 15 0 17 -1 18 -10 8z"/>
<path d="M4633 10815 c0 -27 2 -38 4 -22 2 15 2 37 0 50 -2 12 -4 0 -4 -28z"/>
<path d="M11272 10836 c0 -6 -2 -19 -4 -30 -2 -12 4 -20 15 -22 11 -1 16 0 14
3 -3 3 -2 15 3 28 7 18 5 24 -9 28 -10 2 -18 -1 -19 -7z"/>
<path d="M9417 10804 c-9 -10 2 -24 18 -24 9 0 12 6 9 15 -6 16 -17 19 -27 9z"/>
<path d="M16391 10751 c-1 -24 2 -32 9 -25 7 7 7 19 1 35 -9 23 -10 22 -10
-10z"/>
<path d="M13640 10711 c0 -45 3 -52 18 -49 26 5 28 59 2 83 -20 18 -20 18 -20
-34z"/>
<path d="M4632 10710 c-2 -36 -6 -47 -24 -55 -17 -7 -24 -20 -26 -49 -4 -46
10 -65 33 -46 9 7 16 31 17 59 l1 46 6 -55 c4 -40 10 -55 21 -55 11 0 16 14
18 53 3 46 1 52 -17 52 -17 0 -21 8 -24 48 l-3 47 -2 -45z"/>
<path d="M11292 10703 c2 -26 8 -38 18 -38 19 0 25 41 10 61 -21 24 -31 16
-28 -23z"/>
<path d="M7853 10653 c15 -2 37 -2 50 0 12 2 0 4 -28 4 -27 0 -38 -2 -22 -4z"/>
<path d="M7830 10590 c0 -5 20 -10 45 -10 25 0 45 5 45 10 0 6 -20 10 -45 10
-25 0 -45 -4 -45 -10z"/>
<path d="M11107 10571 c-9 -44 -9 -51 2 -51 13 0 18 22 11 55 l-6 30 -7 -34z"/>
<path d="M13460 10499 l0 -50 53 3 52 3 3 48 3 47 -55 0 -56 0 0 -51z"/>
<path d="M9700 10491 c0 -12 6 -21 15 -21 8 0 15 4 15 9 0 5 -7 14 -15 21 -13
10 -15 9 -15 -9z"/>
<path d="M11074 10458 c-10 -24 -20 -46 -22 -49 -2 -4 4 -9 12 -12 10 -4 19 7
30 41 21 60 6 75 -20 20z"/>
<path d="M4654 10438 c-4 -6 -9 -125 -12 -265 l-5 -253 22 0 c21 0 21 1 21
259 0 240 -5 293 -26 259z"/>
<path d="M17973 10400 c0 -25 2 -35 4 -22 2 12 2 32 0 45 -2 12 -4 2 -4 -23z"/>
<path d="M16500 10384 c0 -40 2 -45 15 -34 8 7 15 28 15 46 0 24 -5 34 -15 34
-11 0 -15 -12 -15 -46z"/>
<path d="M11200 10355 c0 -8 5 -15 10 -15 6 0 10 7 10 15 0 8 -4 15 -10 15 -5
0 -10 -7 -10 -15z"/>
<path d="M11030 10317 c0 -19 -9 -79 -20 -132 -25 -120 -25 -117 3 -113 18 2
22 9 20 33 -3 52 22 151 53 205 5 11 -11 27 -33 34 -21 7 -23 4 -23 -27z"/>
<path d="M4584 10329 c-12 -21 -4 -183 11 -198 26 -27 35 -1 35 105 0 96 -1
104 -19 104 -11 0 -23 -5 -27 -11z"/>
<path d="M13257 10233 c-4 -3 -7 -26 -7 -50 l0 -43 50 0 c48 0 50 1 50 28 0
58 -10 72 -49 72 -21 0 -41 -3 -44 -7z"/>
<path d="M11108 10148 c-12 -54 -9 -95 7 -95 13 0 14 10 9 56 -7 64 -10 71
-16 39z"/>
<path d="M10966 9993 c-3 -21 -6 -65 -6 -98 l1 -60 18 40 c11 23 17 57 16 80
-2 22 -3 48 -4 58 -2 31 -18 18 -25 -20z"/>
<path d="M4600 9962 c0 -32 -5 -63 -11 -69 -6 -6 -9 -28 -7 -49 2 -32 7 -40
26 -42 22 -3 22 -2 22 107 0 92 -3 111 -15 111 -12 0 -15 -13 -15 -58z"/>
<path d="M11046 9985 c4 -8 8 -15 10 -15 2 0 4 7 4 15 0 8 -4 15 -10 15 -5 0
-7 -7 -4 -15z"/>
<path d="M10960 9723 c0 -56 4 -93 10 -93 13 0 13 150 0 170 -7 10 -10 -14
-10 -77z"/>
<path d="M17510 9600 l0 -100 100 0 100 0 0 40 0 40 -50 0 -50 0 0 48 c0 58
-12 72 -62 72 l-38 0 0 -100z"/>
<path d="M2781 9616 c-1 -29 2 -37 10 -29 8 8 8 19 1 40 -10 28 -10 28 -11
-11z"/>
<path d="M4722 9545 c0 -16 2 -22 5 -12 2 9 2 23 0 30 -3 6 -5 -1 -5 -18z"/>
<path d="M2783 9525 c0 -22 2 -30 4 -17 2 12 2 30 0 40 -3 9 -5 -1 -4 -23z"/>
<path d="M4733 9369 c4 -13 7 -30 7 -37 0 -11 3 -10 15 1 18 18 23 41 10 42
-5 0 -16 4 -24 9 -11 7 -13 4 -8 -15z"/>
<path d="M4785 9361 c-3 -5 -1 -12 5 -16 5 -3 10 1 10 9 0 18 -6 21 -15 7z"/>
<path d="M2791 9310 c1 -109 50 -452 65 -457 12 -4 5 56 -21 182 -8 39 -16
116 -19 171 -2 56 -8 110 -14 120 -10 16 -11 14 -11 -16z"/>
<path d="M4765 9261 c-8 -14 3 -122 16 -154 9 -21 9 -31 0 -40 -13 -13 -15
-103 -2 -112 15 -9 33 34 27 61 -4 13 -2 24 3 24 5 0 7 19 5 43 -5 65 -14 140
-20 165 -5 23 -18 29 -29 13z"/>
<path d="M4890 8990 c0 -5 5 -10 11 -10 5 0 7 5 4 10 -3 6 -8 10 -11 10 -2 0
-4 -4 -4 -10z"/>
<path d="M11554 8974 c3 -9 6 -18 6 -20 0 -2 5 -4 10 -4 6 0 10 9 10 20 0 12
-7 20 -16 20 -11 0 -14 -5 -10 -16z"/>
<path d="M4870 8959 c0 -5 5 -7 10 -4 6 3 10 8 10 11 0 2 -4 4 -10 4 -5 0 -10
-5 -10 -11z"/>
<path d="M4678 8843 l-48 -4 0 -44 c0 -41 -11 -59 -35 -60 -5 0 -11 -19 -13
-43 -3 -38 0 -43 23 -52 14 -6 49 -10 76 -10 l49 0 0 -105 c0 -98 -1 -105 -20
-105 -17 0 -20 -7 -20 -44 0 -32 5 -47 20 -57 17 -12 21 -30 27 -117 l6 -103
51 3 51 3 3 48 c3 46 4 47 38 47 38 0 38 1 34 126 -1 37 3 65 10 69 8 5 8 10
-1 21 -9 11 -8 18 5 33 15 16 15 19 1 31 -20 17 -11 67 17 89 28 23 32 93 7
125 -10 13 -19 29 -19 34 0 5 -7 15 -15 22 -9 7 -15 29 -15 52 0 24 -4 37 -10
33 -5 -3 -10 -46 -10 -95 0 -87 -1 -89 -27 -102 -16 -7 -51 -12 -81 -10 l-54
3 4 110 c1 60 1 108 -2 107 -3 -1 -26 -3 -52 -5z"/>
<path d="M4970 8805 c0 -8 4 -15 10 -15 5 0 7 7 4 15 -4 8 -8 15 -10 15 -2 0
-4 -7 -4 -15z"/>
<path d="M2860 8776 c0 -14 5 -28 10 -31 6 -3 10 5 10 19 0 14 -4 28 -10 31
-6 3 -10 -5 -10 -19z"/>
<path d="M2880 8656 c0 -19 5 -38 10 -41 6 -4 10 8 10 29 0 19 -4 38 -10 41
-6 4 -10 -8 -10 -29z"/>
<path d="M5036 8617 c3 -10 9 -15 12 -12 3 3 0 11 -7 18 -10 9 -11 8 -5 -6z"/>
<path d="M4966 8550 c-3 -8 -4 -28 -4 -45 0 -16 -2 -39 -4 -50 -6 -24 7 -35
43 -35 22 0 26 4 24 28 -4 51 -6 57 -30 87 -18 21 -25 25 -29 15z"/>
<path d="M5076 8500 c3 -14 10 -29 15 -34 14 -16 10 6 -7 34 l-15 25 7 -25z"/>
<path d="M2924 8466 c6 -19 12 -33 14 -31 7 6 -9 65 -17 65 -5 0 -3 -15 3 -34z"/>
<path d="M5101 8420 c0 -14 7 -34 15 -45 15 -19 15 -19 8 10 -11 46 -23 65
-23 35z"/>
<path d="M2944 8362 c7 -73 16 -95 27 -66 6 16 8 16 8 2 1 -9 -3 -28 -9 -42
-6 -17 -6 -26 0 -26 6 0 10 7 10 15 0 8 4 15 9 15 10 0 1 93 -10 100 -4 3 -15
19 -24 35 -17 30 -17 30 -11 -33z"/>
<path d="M4950 8411 c0 -6 4 -13 10 -16 6 -3 7 1 4 9 -7 18 -14 21 -14 7z"/>
<path d="M5036 8405 c-3 -8 0 -17 6 -21 6 -4 8 -3 4 4 -3 5 -1 12 6 14 8 3 9
6 1 11 -6 4 -13 0 -17 -8z"/>
<path d="M4944 8358 c3 -13 6 -31 6 -41 0 -14 4 -16 19 -7 21 11 22 30 2 54
-19 23 -34 20 -27 -6z"/>
<path d="M5130 8319 c0 -13 51 -101 56 -96 6 6 -39 107 -48 107 -4 0 -8 -5 -8
-11z"/>
<path d="M2985 8200 c-11 -17 25 -114 38 -101 7 7 7 18 -1 36 -7 14 -12 34
-12 45 0 22 -16 35 -25 20z"/>
<path d="M5190 8198 c0 -9 5 -20 10 -23 13 -8 13 5 0 25 -8 13 -10 13 -10 -2z"/>
<path d="M5210 8141 c0 -12 5 -21 10 -21 6 0 10 6 10 14 0 8 -4 18 -10 21 -5
3 -10 -3 -10 -14z"/>
<path d="M5141 8057 c1 -32 4 -41 6 -23 3 16 11 39 19 50 12 20 12 22 -6 23
-18 2 -20 -4 -19 -50z"/>
<path d="M5240 8086 c0 -8 4 -17 9 -20 5 -4 7 3 4 14 -6 23 -13 26 -13 6z"/>
<path d="M3022 8040 c0 -14 2 -19 5 -12 2 6 2 18 0 25 -3 6 -5 1 -5 -13z"/>
<path d="M5270 8028 c0 -9 5 -20 10 -23 13 -8 13 5 0 25 -8 13 -10 13 -10 -2z"/>
<path d="M3030 7996 c0 -2 9 -32 20 -66 11 -34 20 -70 20 -79 1 -14 2 -14 11
1 7 13 5 31 -6 63 -8 25 -15 52 -15 59 0 8 -7 16 -15 20 -8 3 -15 4 -15 2z"/>
<path d="M5172 7899 c-2 -20 2 -29 13 -29 8 0 15 7 15 16 0 8 -4 12 -10 9 -16
-10 -11 7 6 19 13 10 13 12 -3 13 -14 1 -19 -6 -21 -28z"/>
<path d="M5340 7877 c0 -7 4 -17 9 -22 5 -6 18 -28 30 -50 12 -22 21 -32 21
-24 0 16 -48 109 -56 109 -2 0 -4 -6 -4 -13z"/>
<path d="M3102 7758 c11 -62 10 -60 32 -52 12 5 16 13 12 28 -3 11 -6 31 -6
44 0 14 -4 20 -10 17 -6 -4 -17 -2 -24 4 -11 9 -12 2 -4 -41z"/>
<path d="M3130 7668 c0 -15 28 -111 49 -166 9 -24 24 -48 34 -53 15 -8 17 -5
17 23 0 18 -7 42 -15 52 -8 11 -15 31 -15 44 0 27 -28 93 -44 104 -16 11 -26
10 -26 -4z"/>
<path d="M5460 7674 c0 -6 7 -19 15 -30 8 -10 14 -14 14 -9 0 6 -6 19 -14 29
-8 11 -15 15 -15 10z"/>
<path d="M5530 7540 c0 -5 5 -10 10 -10 6 0 10 5 10 10 0 6 -4 10 -10 10 -5 0
-10 -4 -10 -10z"/>
<path d="M3225 7419 c-3 -9 -2 -26 4 -40 l9 -24 7 28 c8 31 -10 63 -20 36z"/>
<path d="M3251 7351 c-11 -7 -11 -14 3 -41 9 -18 16 -38 16 -44 0 -6 9 -28 20
-49 11 -20 20 -41 20 -46 0 -5 16 -45 37 -89 29 -64 39 -78 48 -68 22 22 -17
181 -47 194 -5 2 -8 10 -8 18 0 8 -9 22 -20 31 -11 10 -20 25 -20 35 0 9 -5
20 -11 23 -6 4 -13 15 -17 26 -5 12 -12 15 -21 10z"/>
<path d="M5634 7349 c-9 -15 10 -32 30 -27 15 3 14 5 -3 20 -13 11 -23 13 -27
7z"/>
<path d="M5670 7281 c0 -5 7 -12 16 -15 22 -9 24 -8 24 9 0 8 -9 15 -20 15
-11 0 -20 -4 -20 -9z"/>
<path d="M5715 7250 c-8 -14 16 -45 37 -46 15 -1 14 2 -4 27 -24 33 -25 33
-33 19z"/>
<path d="M5767 7183 c-4 -3 2 -13 14 -21 26 -18 35 -10 11 11 -10 10 -22 14
-25 10z"/>
<path d="M5490 7171 c0 -5 5 -13 10 -16 6 -3 10 -2 10 4 0 5 -4 13 -10 16 -5
3 -10 2 -10 -4z"/>
<path d="M5880 7051 c0 -5 7 -15 17 -22 15 -13 15 -12 4 9 -12 23 -21 28 -21
13z"/>
<path d="M3417 6997 c-4 -10 -11 -15 -17 -12 -5 3 -10 5 -10 3 0 -10 174 -346
186 -359 8 -8 14 -20 14 -25 0 -6 15 -38 33 -72 33 -62 33 -62 47 -37 10 18
11 31 3 48 -6 12 -15 34 -22 49 -7 20 -17 27 -33 25 -20 -2 -22 2 -23 58 -1
54 -3 60 -23 63 -15 2 -22 10 -22 25 0 12 -10 33 -23 47 -20 22 -57 89 -57
104 0 3 -8 15 -17 26 -10 11 -20 33 -23 48 -5 23 -7 24 -13 9z m106 -217 c3
-11 3 -20 1 -20 -2 0 -8 9 -14 20 -6 11 -7 20 -2 20 6 0 12 -9 15 -20z m127
-221 c0 -5 -7 -9 -15 -9 -8 0 -15 7 -15 15 0 9 6 12 15 9 8 -4 15 -10 15 -15z"/>
<path d="M5940 6963 c1 -10 60 -69 60 -59 0 11 -43 66 -52 66 -4 0 -8 -3 -8
-7z"/>
<path d="M3676 6438 c22 -73 38 -91 49 -57 4 13 1 27 -9 38 -9 10 -16 23 -16
29 0 7 -7 12 -16 12 -11 0 -14 -6 -8 -22z"/>
<path d="M3747 6374 c-3 -4 -2 -15 4 -25 6 -13 6 -19 -1 -19 -5 0 -10 5 -10
12 0 6 -3 9 -6 6 -7 -8 15 -51 71 -138 25 -38 45 -71 45 -75 0 -3 12 -21 27
-40 22 -27 30 -32 45 -24 38 20 4 79 -45 79 -26 0 -28 2 -22 29 5 25 1 33 -28
55 -26 20 -34 32 -29 48 3 14 1 19 -6 14 -7 -4 -9 1 -6 16 2 13 -1 33 -8 46
-12 23 -20 27 -31 16z"/>
<path d="M6560 6264 c0 -8 5 -12 10 -9 6 3 10 10 10 16 0 5 -4 9 -10 9 -5 0
-10 -7 -10 -16z"/>
<path d="M6590 6235 c7 -8 17 -15 22 -15 5 0 3 7 -6 15 -8 8 -18 15 -22 15 -3
0 -1 -7 6 -15z"/>
<path d="M6670 6185 c0 -8 2 -15 4 -15 2 0 6 7 10 15 3 8 1 15 -4 15 -6 0 -10
-7 -10 -15z"/>
<path d="M6690 6146 c0 -2 7 -7 16 -10 8 -3 12 -2 9 4 -6 10 -25 14 -25 6z"/>
<path d="M3950 6019 c0 -24 23 -21 28 4 2 10 -3 17 -12 17 -10 0 -16 -9 -16
-21z"/>
<path d="M6818 5983 c7 -3 16 -2 19 1 4 3 -2 6 -13 5 -11 0 -14 -3 -6 -6z"/>
<path d="M7062 5889 c2 -7 10 -15 17 -17 8 -3 12 1 9 9 -2 7 -10 15 -17 17 -8
3 -12 -1 -9 -9z"/>
<path d="M4034 5865 c6 -11 20 -32 31 -46 11 -14 26 -35 32 -45 60 -93 96
-144 102 -148 15 -9 5 60 -12 84 -15 21 -19 22 -27 10 -8 -12 -10 -12 -16 3
-4 10 -2 23 5 30 19 19 12 37 -13 37 -16 0 -27 7 -31 20 -3 11 -10 20 -15 20
-4 0 -8 6 -7 13 1 37 -4 44 -31 43 -26 -1 -28 -3 -18 -21z"/>
<path d="M6453 5810 c0 -25 2 -35 4 -22 2 12 2 32 0 45 -2 12 -4 2 -4 -23z"/>
<path d="M6524 5836 c-8 -22 -1 -59 14 -64 8 -2 12 9 12 37 0 40 -15 55 -26
27z"/>
<path d="M7175 5810 c-3 -5 1 -10 10 -10 9 0 13 5 10 10 -3 6 -8 10 -10 10 -2
0 -7 -4 -10 -10z"/>
<path d="M7138 5742 c-11 -2 -15 -9 -11 -20 15 -39 53 -57 53 -24 -1 25 -22
48 -42 44z"/>
<path d="M4223 5613 c-13 -5 -4 -27 25 -62 7 -9 43 -54 79 -101 65 -83 111
-140 156 -190 13 -14 56 -63 97 -110 41 -47 80 -91 87 -97 14 -15 27 -17 18
-3 -3 6 1 10 10 10 9 0 15 6 12 13 -2 6 -13 12 -24 11 -17 0 -20 5 -18 25 5
36 -5 71 -19 71 -13 0 -44 33 -70 73 -10 17 -23 26 -31 23 -20 -7 -72 21 -78
43 -2 11 0 24 6 30 14 14 -28 48 -71 57 -23 5 -32 11 -30 23 4 24 -29 71 -50
71 -20 1 -88 87 -84 107 2 7 2 13 0 12 -2 0 -8 -3 -15 -6z m364 -418 c9 -25
-4 -29 -17 -6 -7 15 -7 21 0 21 6 0 13 -7 17 -15z"/>
<path d="M4290 5539 c0 -5 5 -7 10 -4 6 3 10 8 10 11 0 2 -4 4 -10 4 -5 0 -10
-5 -10 -11z"/>
<path d="M4709 5002 c17 -30 86 -85 109 -87 18 -1 22 4 22 27 0 19 -5 28 -16
28 -11 0 -14 -6 -9 -20 4 -13 2 -20 -7 -20 -15 0 -48 34 -48 49 0 5 -13 16
-30 24 -27 14 -29 14 -21 -1z"/>
<path d="M4882 4888 c2 -6 10 -14 16 -16 7 -2 10 2 6 12 -7 18 -28 22 -22 4z"/>
<path d="M4870 4848 c0 -7 72 -80 75 -76 2 2 -2 10 -9 18 -16 21 -66 65 -66
58z"/>
<path d="M4921 4834 c0 -11 3 -14 6 -6 3 7 2 16 -1 19 -3 4 -6 -2 -5 -13z"/>
<path d="M4960 4790 c0 -5 7 -10 16 -10 8 0 12 5 9 10 -3 6 -10 10 -16 10 -5
0 -9 -4 -9 -10z"/>
<path d="M5022 4783 c-14 -3 -22 -10 -18 -18 7 -20 -4 -26 -27 -14 -18 10 -18
10 -6 -8 25 -35 88 -85 101 -80 7 2 21 0 31 -5 30 -15 19 10 -13 29 -16 9 -30
25 -30 35 0 9 -5 20 -11 24 -6 3 -9 15 -6 25 3 11 4 18 4 18 -1 -1 -12 -4 -25
-6z m18 -83 c0 -5 -2 -10 -4 -10 -3 0 -8 5 -11 10 -3 6 -1 10 4 10 6 0 11 -4
11 -10z"/>
<path d="M5113 4595 c27 -25 53 -43 58 -39 12 7 49 -5 49 -17 0 -5 -7 -9 -15
-9 -26 0 -17 -16 36 -61 28 -24 74 -65 103 -90 43 -39 100 -88 209 -179 9 -8
28 -24 40 -36 12 -12 32 -26 44 -33 20 -10 22 -9 16 5 -4 12 -3 15 5 10 7 -4
12 -15 12 -25 0 -10 17 -31 38 -47 20 -15 44 -34 52 -41 32 -29 159 -123 166
-123 4 0 17 -8 28 -17 20 -17 20 -17 7 0 -12 15 -11 17 3 17 9 0 16 7 16 15 0
8 -6 15 -14 15 -10 0 -13 8 -11 22 5 23 -22 61 -36 53 -4 -3 -19 0 -33 6 -23
11 -31 27 -27 53 2 11 -29 46 -42 46 -5 0 -15 -7 -22 -17 -11 -15 -14 -15 -36
0 -13 10 -31 17 -41 17 -10 0 -18 7 -18 18 0 18 -41 42 -72 42 -10 0 -18 7
-18 15 0 8 -7 15 -15 15 -8 0 -15 5 -15 11 0 5 -5 7 -10 4 -6 -4 -17 -1 -25 5
-11 9 -12 16 -2 30 9 16 7 22 -12 40 -13 11 -29 20 -34 20 -6 0 -19 8 -29 17
-15 14 -23 15 -38 6 -15 -10 -24 -7 -51 16 -20 18 -28 31 -20 35 6 4 15 4 21
1 6 -3 7 1 4 9 -7 19 -21 21 -27 4 -3 -10 -7 -10 -20 1 -10 7 -17 18 -17 23 0
5 -7 16 -15 24 -10 10 -12 21 -7 32 16 32 8 47 -23 46 -20 0 -36 8 -48 23 -10
13 -22 21 -27 18 -4 -3 -13 2 -20 10 -6 7 -19 11 -27 8 -11 -4 -14 -2 -9 5 4
7 2 10 -7 7 -7 -3 -22 3 -32 15 -10 11 -23 20 -29 20 -6 0 11 -20 37 -45z
m347 -285 c0 -5 -2 -10 -4 -10 -3 0 -8 5 -11 10 -3 6 -1 10 4 10 6 0 11 -4 11
-10z m375 -290 c3 -5 1 -10 -4 -10 -6 0 -11 5 -11 10 0 6 2 10 4 10 3 0 8 -4
11 -10z m55 -46 c0 -17 -22 -14 -28 4 -2 7 3 12 12 12 9 0 16 -7 16 -16z"/>
<path d="M14413 4468 c2 -7 10 -13 17 -13 7 0 15 6 18 13 2 7 -5 12 -18 12
-13 0 -20 -5 -17 -12z"/>
<path d="M14490 4390 c0 -5 5 -10 10 -10 6 0 10 5 10 10 0 6 -4 10 -10 10 -5
0 -10 -4 -10 -10z"/>
<path d="M10413 4253 c15 -2 37 -2 50 0 12 2 0 4 -28 4 -27 0 -38 -2 -22 -4z"/>
<path d="M10160 4206 c0 -9 7 -16 16 -16 17 0 14 22 -4 28 -7 2 -12 -3 -12
-12z"/>
<path d="M10236 4211 c-3 -5 0 -14 8 -20 10 -8 16 -8 25 2 6 8 8 17 4 20 -9
10 -31 9 -37 -2z"/>
<path d="M9797 3944 c-13 -14 -7 -81 8 -94 24 -20 37 1 33 51 -3 42 -22 62
-41 43z"/>
<path d="M5995 3900 c3 -5 16 -10 28 -10 18 0 19 2 7 10 -20 13 -43 13 -35 0z"/>
<path d="M10387 3883 c-4 -3 -7 -15 -7 -25 0 -26 80 -26 97 1 7 10 9 22 6 25
-8 8 -88 8 -96 -1z"/>
<path d="M6013 3862 c-9 -6 -5 -13 15 -24 23 -14 30 -14 46 -2 11 7 18 16 15
18 -10 9 -65 15 -76 8z"/>
<path d="M6130 3834 c-14 -7 -25 -21 -25 -30 0 -20 104 -96 118 -87 6 3 7 1 3
-5 -6 -10 43 -52 61 -52 5 0 24 -13 43 -30 39 -33 53 -36 68 -17 8 10 0 25
-35 62 -39 41 -52 49 -81 48 -20 -1 -35 4 -39 13 -4 10 -10 11 -24 3 -11 -5
-24 -7 -30 -3 -18 10 -28 48 -16 62 7 9 6 11 -7 6 -14 -5 -16 -2 -10 20 3 14
5 26 3 25 -2 -1 -15 -7 -29 -15z m185 -153 c10 -17 -12 -21 -25 -6 -10 12 -10
15 3 15 9 0 18 -4 22 -9z"/>
<path d="M11020 3798 c0 -24 -5 -49 -12 -56 -9 -9 -71 -12 -216 -12 l-204 0 4
-92 c3 -51 3 -74 1 -50 l-4 42 -105 0 -105 0 3 -152 3 -153 43 -3 c38 -3 42
-1 42 21 0 13 13 36 29 51 l29 28 282 -1 c203 -2 286 1 296 10 8 7 14 30 14
55 l0 44 215 0 216 0 -3 153 -3 152 -50 0 -50 0 -3 -46 c-4 -58 -4 -59 -184
-59 l-137 0 -3 53 -3 52 -47 3 -48 3 0 -43z m-333 -240 c-2 -13 -4 -3 -4 22 0
25 2 35 4 23 2 -13 2 -33 0 -45z"/>
<path d="M6270 3760 c19 -5 41 -4 50 0 10 6 -1 9 -35 9 -48 -1 -49 -1 -15 -9z"/>
<path d="M6436 3623 c-31 -8 -48 -29 -33 -41 46 -36 119 -82 131 -82 8 0 17
-6 19 -12 4 -10 6 -10 6 0 1 7 5 11 10 8 5 -3 12 5 15 19 5 18 15 27 36 32 52
10 33 23 -33 23 -57 0 -66 3 -92 30 -16 17 -31 29 -34 29 -3 -1 -15 -4 -25 -6z
m144 -77 c0 -2 -18 -6 -39 -8 -22 -2 -37 0 -35 4 5 8 74 11 74 4z"/>
<path d="M10152 3583 l3 -48 49 -3 c27 -2 56 0 65 3 14 6 14 7 -1 16 -21 11
-24 49 -6 67 9 9 -2 12 -51 12 l-62 0 3 -47z"/>
<path d="M10320 3474 c0 -34 4 -53 10 -49 6 3 10 28 10 56 0 27 -4 49 -10 49
-5 0 -10 -25 -10 -56z"/>
<path d="M6625 3493 c4 -9 -2 -13 -20 -13 -43 0 -25 -21 56 -67 41 -23 83 -49
94 -57 10 -9 23 -16 28 -16 5 0 20 -9 34 -20 36 -28 47 -25 17 5 -14 14 -29
25 -34 25 -15 0 -12 9 10 37 24 31 25 43 5 43 -9 0 -27 8 -41 17 -17 10 -42
16 -71 14 -35 -2 -48 3 -64 21 -11 13 -18 17 -14 11z m140 -73 c3 -5 -3 -10
-15 -10 -12 0 -18 5 -15 10 3 6 10 10 15 10 5 0 12 -4 15 -10z"/>
<path d="M11442 3403 c3 -14 14 -18 53 -18 39 0 50 4 53 18 3 14 -5 17 -53 17
-48 0 -56 -3 -53 -17z"/>
<path d="M7082 3348 c3 -7 25 -14 51 -16 37 -2 47 0 47 12 0 12 -12 16 -51 16
-36 0 -49 -4 -47 -12z"/>
<path d="M10561 3346 c-9 -11 -8 -15 5 -20 22 -8 24 -8 24 8 0 21 -16 28 -29
12z"/>
<path d="M6900 3305 c0 -8 5 -15 11 -15 5 0 8 -4 5 -9 -7 -11 7 -23 69 -55 27
-15 55 -24 62 -22 7 3 13 2 13 -3 0 -5 10 -11 23 -14 12 -3 32 -9 45 -12 18
-6 22 -4 22 14 0 12 6 21 15 21 8 0 15 7 15 15 0 11 -12 15 -49 15 -29 0 -51
-5 -53 -12 -5 -15 -48 -21 -48 -6 0 6 -21 31 -46 55 -46 43 -84 56 -84 28z
m55 -35 c3 -5 1 -10 -4 -10 -6 0 -11 5 -11 10 0 6 2 10 4 10 3 0 8 -4 11 -10z"/>
<path d="M7400 3280 c0 -5 20 -10 45 -10 25 0 45 5 45 10 0 6 -20 10 -45 10
-25 0 -45 -4 -45 -10z"/>
<path d="M7190 3191 c0 -7 -13 -17 -30 -22 -31 -11 -32 -29 -1 -29 19 0 49 45
38 57 -4 3 -7 1 -7 -6z"/>
<path d="M7406 3130 c6 -6 27 -13 47 -17 30 -4 37 -3 37 11 0 12 -10 16 -47
16 -32 0 -44 -3 -37 -10z"/>
<path d="M13467 3103 c-14 -13 -6 -23 18 -23 28 0 34 15 9 24 -19 7 -19 7 -27
-1z"/>
<path d="M7250 3090 c0 -6 7 -10 15 -10 8 0 15 2 15 4 0 2 -7 6 -15 10 -8 3
-15 1 -15 -4z"/>
<path d="M7325 3080 c-3 -6 1 -12 9 -15 9 -3 23 -7 31 -10 18 -5 20 6 3 23
-15 15 -35 16 -43 2z"/>
<path d="M8035 2911 c-6 -11 79 -26 94 -16 6 3 11 10 11 16 0 12 -97 12 -105
0z"/>
<path d="M12853 2873 c9 -2 25 -2 35 0 9 3 1 5 -18 5 -19 0 -27 -2 -17 -5z"/>
<path d="M8460 2805 c0 -11 12 -15 50 -15 38 0 50 4 50 15 0 11 -12 15 -50 15
-38 0 -50 -4 -50 -15z"/>
<path d="M11975 2660 c3 -5 13 -10 21 -10 8 0 14 5 14 10 0 6 -9 10 -21 10
-11 0 -17 -4 -14 -10z"/>
<path d="M10490 2498 c0 -10 22 -12 91 -10 68 3 94 0 101 -10 7 -9 8 -8 6 7
-3 18 -12 20 -101 23 -74 2 -97 0 -97 -10z"/>
<path d="M11020 2500 c0 -10 28 -11 210 -11 47 -1 76 -3 65 -6 -34 -8 -38 -20
-5 -15 21 3 30 10 30 23 0 18 -10 19 -150 19 -93 0 -150 -4 -150 -10z"/>
<path d="M10068 2463 c6 -2 18 -2 25 0 6 3 1 5 -13 5 -14 0 -19 -2 -12 -5z"/>
</g>
</svg>
